<svg xmlns="http://www.w3.org/2000/svg" width="230" height="73" viewBox="0 0 230 73" fill="none"><g clip-path="url(#clip0_4265_17448)"><path d="M36.6074 72.7953C16.4218 72.7953 0 56.4676 0 36.3973C0 16.3277 16.4218 0 36.6074 0C56.7929 0 73.2146 16.3277 73.2146 36.3973C73.2146 56.4676 56.7929 72.7953 36.6074 72.7953ZM36.6074 0.398275C16.6433 0.398275 0.401072 16.5477 0.401072 36.3973C0.401072 56.2469 16.6433 72.3963 36.6074 72.3963C56.5716 72.3963 72.8133 56.2469 72.8133 36.3973C72.8133 16.5477 56.5716 0.398275 36.6074 0.398275Z" fill="#DDAF53"></path><path d="M65.2084 31.1293C65.1881 31.1027 65.1729 31.0761 65.1599 31.0517C65.123 30.9877 65.0616 30.8849 64.9387 30.9C64.8707 30.905 64.8317 30.9366 64.81 30.9618C64.7753 31.0028 64.7615 31.0567 64.7666 31.1214C64.7702 31.1624 64.7803 31.2177 64.7933 31.2875C64.8136 31.396 64.8425 31.5441 64.8584 31.7267C64.8721 31.8985 64.8685 32.033 64.8642 32.1293C64.862 32.1875 64.8606 32.2321 64.8635 32.2623C64.8671 32.3026 64.8758 32.3622 64.9206 32.4054C64.9777 32.46 65.0544 32.4535 65.0782 32.4521C65.2351 32.4392 65.2554 32.3011 65.2669 32.2271C65.272 32.194 65.2756 32.1638 65.2857 32.1379C65.3168 32.0646 65.3812 31.9877 65.6321 31.9661L66.2893 31.91C66.3009 31.9093 66.3096 31.9093 66.3175 31.9093C66.3312 31.9093 66.3378 31.9093 66.3378 31.91C66.3399 31.9143 66.3493 31.9316 66.3544 31.9927C66.3659 32.1329 66.3696 32.1976 66.3247 32.2558C66.2857 32.3105 66.0919 32.4233 65.849 32.5671L65.7709 32.6131C65.2503 32.9179 64.9546 33.1638 64.9857 33.5254C65.0023 33.7181 65.0927 33.9179 65.2055 34.0128C65.2633 34.061 65.3154 34.0725 65.3522 34.0725C65.3573 34.0725 65.3624 34.0725 65.3674 34.0711C65.4679 34.0624 65.5243 33.9956 65.5164 33.8956C65.5149 33.8777 65.5113 33.8575 65.5063 33.836C65.5034 33.8209 65.4997 33.8058 65.4983 33.7892C65.4925 33.7109 65.5099 33.6627 65.7203 33.5269L66.5171 33.0092C66.5518 32.9877 66.5858 32.9647 66.6168 32.9381C66.7976 33.2587 67.0557 33.4003 67.4151 33.3701C67.7065 33.3457 67.9371 33.2206 68.0825 33.0078C68.2263 32.7964 68.2835 32.5089 68.2538 32.1523C68.2401 31.9941 68.2184 31.8417 68.1967 31.6987C68.1779 31.5722 68.1598 31.4521 68.1497 31.3378C68.1302 31.1164 68.1345 30.9546 68.1367 30.8569C68.1381 30.8087 68.1381 30.7749 68.1367 30.7533C68.1316 30.6872 68.1078 30.6383 68.0666 30.6038C68.0412 30.5822 67.9957 30.5571 67.9241 30.5635C67.765 30.5758 67.752 30.7174 67.7462 30.7936C67.7412 30.8569 67.7361 30.9151 67.6913 30.9668C67.6277 31.0459 67.5308 31.061 67.3103 31.0797L65.5598 31.2264C65.332 31.2522 65.2582 31.1947 65.2084 31.1293ZM67.2401 32.6448C67.0774 32.657 66.969 32.6297 66.8967 32.5549C66.8244 32.4787 66.781 32.3457 66.7643 32.1494C66.7513 31.9963 66.7513 31.9093 66.7658 31.8914C66.773 31.8849 66.8048 31.8798 66.8569 31.8762L67.5763 31.8151C67.6559 31.8087 67.752 31.8036 67.7954 31.8281C67.807 31.8346 67.8373 31.8511 67.8475 31.9661C67.8641 32.1595 67.8185 32.3241 67.7144 32.4406C67.6096 32.5556 67.4455 32.6282 67.2401 32.6448Z" fill="#58574B"></path><path d="M5.6267 29.4469C5.77695 29.4994 5.84571 29.3736 5.88389 29.3067C5.91447 29.2521 5.94376 29.2003 6.00362 29.1709C6.094 29.1241 6.18952 29.1493 6.39833 29.2205L8.05996 29.7913C8.27138 29.8639 8.31721 29.9494 8.335 30.0271C8.34267 30.0587 8.3465 30.0903 8.34903 30.1169C8.35662 30.1917 8.36812 30.3031 8.48909 30.3448C8.51201 30.352 8.53493 30.3563 8.55785 30.3563C8.63803 30.3563 8.70426 30.3046 8.73738 30.2104C8.7501 30.1723 8.76283 30.1184 8.77938 30.0501C8.80483 29.9422 8.83925 29.7941 8.89905 29.6195C8.95639 29.4563 9.01496 29.3355 9.05827 29.2485C9.08372 29.1967 9.1028 29.1572 9.113 29.127C9.17156 28.9559 9.0621 28.8912 8.99334 28.8675C8.84179 28.8157 8.76919 28.9329 8.72971 28.9976C8.71193 29.0256 8.69537 29.0522 8.67628 29.0709C8.62277 29.1227 8.52979 29.1709 8.29046 29.0889L7.66778 28.8747C7.63727 28.8632 7.62577 28.856 7.62454 28.856C7.62324 28.8509 7.62324 28.8315 7.64363 28.7733C7.68947 28.641 7.71239 28.5814 7.77732 28.5454C7.83589 28.5131 8.05996 28.485 8.3452 28.4505L8.43052 28.4405C9.03021 28.3722 9.40077 28.265 9.52043 27.9228C9.60958 27.6662 9.57524 27.3319 9.39441 27.2694C9.34726 27.2528 9.30526 27.2543 9.26708 27.2722C9.23013 27.2902 9.20215 27.3226 9.18559 27.3707C9.17923 27.3887 9.17539 27.4088 9.17026 27.4304C9.16773 27.4455 9.1639 27.4606 9.15884 27.475C9.13086 27.5548 9.08241 27.5886 8.84945 27.6252L7.90971 27.7783C7.87023 27.7848 7.82952 27.7927 7.79004 27.8035C7.7544 27.4383 7.57234 27.2025 7.23612 27.0875C6.95854 26.9926 6.69753 27.0142 6.47852 27.1493C6.26081 27.2845 6.09147 27.5239 5.97304 27.8632C5.92083 28.0142 5.88006 28.1608 5.84188 28.3017C5.80753 28.4239 5.77565 28.5418 5.73747 28.6511C5.66488 28.8596 5.59488 29.0077 5.55411 29.0961C5.53372 29.1407 5.51846 29.1723 5.5121 29.1924C5.46879 29.3082 5.51463 29.4088 5.6267 29.4469ZM6.44801 28.4484C6.21244 28.3671 6.21497 28.3333 6.25951 28.2011C6.35755 27.92 6.55111 27.7719 6.8096 27.7719C6.89615 27.7719 6.99166 27.7884 7.09101 27.8244C7.35073 27.9128 7.47169 28.0472 7.32527 28.4685C7.27437 28.613 7.23872 28.6928 7.21956 28.705C7.20814 28.7043 7.17886 28.6993 7.13048 28.6827L6.44801 28.4484Z" fill="#58574B"></path><path d="M63.3198 25.08C63.2945 25.0591 63.2728 25.0368 63.2547 25.0153C63.2041 24.9606 63.1267 24.8787 63.0053 24.9175C62.9344 24.9405 62.9026 24.9858 62.8881 25.0203C62.8693 25.0642 62.8693 25.1152 62.8881 25.172C62.8975 25.2 62.9149 25.2417 62.9402 25.3C62.9901 25.4136 63.0653 25.5875 63.1441 25.8305C63.2026 26.0102 63.2424 26.1749 63.2778 26.3201C63.3075 26.438 63.3328 26.5444 63.3617 26.6357C63.46 26.9369 63.6155 27.1102 63.8534 27.1828C63.9604 27.2151 64.0811 27.2281 64.1874 27.2281C64.2901 27.2281 64.379 27.2166 64.4318 27.1986C64.5345 27.1662 64.5923 27.0749 64.5627 26.9865C64.5323 26.8916 64.4441 26.8708 64.3682 26.8535C64.3046 26.8384 64.225 26.8204 64.1296 26.7622C63.9452 26.6493 63.7644 26.3992 63.6806 26.1404C63.601 25.8959 63.6242 25.8887 63.8982 25.801L64.5641 25.5883C64.7066 25.5415 64.7066 25.5415 64.7348 25.6263L64.7883 25.7924C64.8656 26.0318 64.8425 26.0987 64.7369 26.1835C64.703 26.2101 64.6683 26.2266 64.635 26.2432C64.5706 26.2748 64.4492 26.333 64.4976 26.4847C64.5309 26.5861 64.6241 26.6292 64.7297 26.5947C64.742 26.5911 64.7666 26.5811 64.8006 26.566C64.8902 26.5264 65.0558 26.4531 65.3118 26.3726C65.4173 26.3381 65.4932 26.3215 65.5417 26.3129C65.5699 26.3064 65.5901 26.3028 65.6017 26.2978C65.6263 26.2899 65.6971 26.2669 65.729 26.2036C65.742 26.1785 65.7543 26.1382 65.7369 26.085C65.6935 25.952 65.5764 25.9391 65.4896 25.9304C65.4499 25.9254 65.4079 25.9218 65.3674 25.9074C65.2872 25.8808 65.225 25.8276 65.1664 25.6443L65.1231 25.5092C65.1093 25.4646 65.1093 25.4394 65.1129 25.4301C65.1165 25.4215 65.1368 25.4078 65.178 25.3949L65.8439 25.1821C65.9242 25.1569 65.9509 25.1706 65.9596 25.1756C65.9979 25.1964 66.037 25.2647 66.0753 25.3834C66.2177 25.8255 66.1859 25.9736 66.0883 26.067C66.0601 26.0936 66.0247 26.1087 65.99 26.1231C65.9329 26.1468 65.7991 26.2029 65.8512 26.3596C65.9032 26.5214 66.0399 26.4782 66.084 26.4646L66.1266 26.4509C66.1823 26.4315 66.2893 26.3949 66.4462 26.3445L66.5366 26.3151C66.7629 26.2432 66.7441 26.1217 66.6957 25.9721C66.6675 25.8837 66.6255 25.7737 66.5756 25.6379C66.4997 25.433 66.405 25.1785 66.3045 24.8643C66.1707 24.4517 66.1136 24.2 66.0883 24.0922C66.0818 24.062 66.0767 24.0412 66.0738 24.034C66.055 23.9758 66.0247 23.9326 65.9827 23.906C65.935 23.8773 65.8794 23.8694 65.823 23.888C65.6668 23.9391 65.6921 24.0886 65.7051 24.1691C65.7167 24.2367 65.7275 24.3064 65.6986 24.3697C65.6516 24.4696 65.567 24.5034 65.3559 24.5717L63.6813 25.1073C63.4687 25.172 63.3827 25.1339 63.3198 25.08Z" fill="#58574B"></path><path d="M7.57361 37.187C7.58511 37.21 7.59278 37.2338 7.59914 37.2604C7.61693 37.3236 7.64621 37.4293 7.77737 37.4415C7.78503 37.443 7.79139 37.443 7.79899 37.443C7.90086 37.443 7.97476 37.3732 7.98619 37.2632C7.98749 37.2445 7.98618 37.2129 7.98365 37.1719C7.97859 37.1065 7.97093 37.0051 7.98365 36.8736C8.00144 36.696 8.03203 36.558 8.05495 36.4566C8.06897 36.3919 8.08039 36.3416 8.08423 36.3049C8.09572 36.1834 8.02949 36.1008 7.90983 36.0885C7.75698 36.077 7.7201 36.2057 7.68446 36.3229C7.61823 36.5443 7.5418 36.5379 7.50615 36.5343C7.47817 36.5314 7.44253 36.5184 7.39032 36.4918L7.06307 36.3387C6.94211 36.2834 6.94464 36.2683 6.96243 36.0742L7.02229 35.4703C7.04015 35.287 7.04015 35.287 7.17638 35.2467L7.4896 35.1518C7.54563 35.1324 7.60037 35.1252 7.64874 35.1303C7.73406 35.1374 7.75575 35.182 7.79009 35.2898C7.81301 35.3632 7.84866 35.4717 7.96579 35.4832C8.02566 35.4883 8.07917 35.4746 8.11864 35.4415C8.15176 35.4149 8.17085 35.3768 8.17591 35.3366C8.17721 35.3251 8.17721 35.3021 8.17461 35.2668C8.17085 35.1806 8.16319 35.0037 8.18994 34.7277C8.20397 34.5796 8.23064 34.4487 8.25234 34.3452C8.26889 34.2654 8.28285 34.1971 8.28798 34.141C8.2994 34.021 8.24467 33.9563 8.12117 33.9441C7.97599 33.9282 7.93145 34.0275 7.90216 34.0979C7.8958 34.1144 7.88814 34.1324 7.87925 34.1525C7.82957 34.2575 7.77354 34.2906 7.62842 34.3387L4.85512 35.2136C4.76351 35.2453 4.70617 35.3035 4.69981 35.374C4.68961 35.4818 4.76351 35.5235 4.80551 35.5479L7.22605 36.911C7.40681 37.0152 7.52141 37.0849 7.57361 37.187ZM6.54357 35.4322C6.56519 35.4264 6.58305 35.4214 6.5983 35.4185C6.5983 35.4264 6.597 35.4365 6.59577 35.448L6.5448 35.9577C6.54097 36.0008 6.53721 36.0303 6.53337 36.049C6.52318 36.0454 6.51168 36.0389 6.49773 36.031L5.81142 35.6565L6.54357 35.4322Z" fill="#58574B"></path><path d="M60.1962 20.482C60.2143 20.482 60.2309 20.4791 60.244 20.4776L63.1875 20.1182C63.2663 20.1096 63.3227 20.1067 63.361 20.1067C63.4333 20.1067 63.4398 20.1132 63.4398 20.1132L63.4637 20.1311C63.5338 20.1807 63.6191 20.2411 63.7377 20.1707C63.7825 20.1441 63.8093 20.1096 63.8201 20.0679C63.8368 20.0017 63.8013 19.9435 63.7912 19.9248C63.7775 19.9018 63.7543 19.8738 63.7247 19.8385C63.6828 19.7889 63.6271 19.7206 63.5692 19.625C63.5049 19.5172 63.4572 19.4129 63.4152 19.3231C63.3827 19.2526 63.3545 19.1915 63.3277 19.1462C63.2974 19.0945 63.2605 19.0628 63.2142 19.0485C63.1658 19.0334 63.1137 19.0413 63.0631 19.0729C62.933 19.1498 62.9814 19.2807 63.0103 19.359C63.0183 19.3806 63.027 19.4043 63.0349 19.4295C63.0682 19.5474 63.0349 19.625 62.9279 19.689C62.891 19.7106 62.7862 19.7652 62.6199 19.7839L61.1261 19.9665L62.1181 18.6358C62.1687 18.5704 62.2157 18.5079 62.2743 18.4726C62.3422 18.4309 62.3805 18.4331 62.4579 18.4841L62.4984 18.5129C62.5635 18.5589 62.6517 18.6222 62.7594 18.5589C62.8021 18.5337 62.8339 18.4913 62.8447 18.4431C62.8563 18.3964 62.8498 18.3483 62.8259 18.3094C62.818 18.2965 62.8006 18.2749 62.7753 18.2447C62.7189 18.1786 62.6155 18.0571 62.4962 17.8572C62.3994 17.6962 62.3336 17.5531 62.2851 17.4482C62.254 17.3813 62.2287 17.3267 62.207 17.2915C62.1882 17.2613 62.1586 17.2167 62.1051 17.198C62.0566 17.1786 62.0046 17.1865 61.9511 17.2181C61.8267 17.2929 61.8535 17.4101 61.8751 17.5043L61.8889 17.5661C61.9055 17.6488 61.8838 17.707 61.792 17.8371L60.082 20.1843C60.0119 20.2843 60.0299 20.359 60.0567 20.4043C60.0957 20.469 60.1521 20.482 60.1962 20.482Z" fill="#58574B"></path><path d="M8.14789 22.4146C8.28794 22.5031 8.38729 22.3888 8.44202 22.3269C8.48656 22.2766 8.5337 22.2234 8.60116 22.204C8.7107 22.1767 8.78959 22.2191 8.97555 22.3384L10.4538 23.2852C10.6422 23.4067 10.6665 23.4966 10.6652 23.5778C10.6652 23.6123 10.6601 23.6425 10.6563 23.6691C10.6448 23.7475 10.6295 23.8553 10.7391 23.9258C10.7772 23.9502 10.8129 23.9588 10.8435 23.9588C10.8626 23.9588 10.8804 23.9552 10.8944 23.9509C10.9402 23.9373 10.9797 23.9042 11.0115 23.8553C11.0344 23.8194 11.0599 23.7705 11.0918 23.7079C11.1401 23.613 11.2025 23.4944 11.2904 23.36C11.3146 23.3219 11.3528 23.2716 11.4011 23.2069C11.489 23.0904 11.61 22.9308 11.7475 22.7194C11.9665 22.3801 12.0926 22.1005 12.0378 21.7547C11.9932 21.465 11.8188 21.2026 11.5603 21.0372C11.2293 20.8244 10.8549 20.8309 10.5709 21.0307C10.5634 20.7827 10.45 20.5915 10.2297 20.4492C9.78276 20.163 9.25819 20.3485 8.88763 20.9179C8.80238 21.0509 8.72466 21.186 8.6483 21.3183C8.57571 21.4434 8.50442 21.567 8.4293 21.6835C8.3058 21.874 8.21151 21.9912 8.15425 22.0624C8.1288 22.0926 8.11224 22.1141 8.10335 22.1285C8.02056 22.2536 8.0664 22.3622 8.14789 22.4146ZM11.4865 22.076C11.5196 22.2234 11.4801 22.3866 11.3757 22.5498C11.2815 22.6957 11.2051 22.7691 11.1363 22.7813C11.0739 22.7913 10.986 22.7597 10.8473 22.6698L10.3417 22.3463C10.1546 22.2256 10.1546 22.2256 10.2819 22.0293C10.4143 21.8259 10.5697 21.6914 10.7327 21.6411C10.7836 21.6253 10.8346 21.6167 10.8855 21.6167C10.9962 21.6167 11.1095 21.6533 11.2241 21.7259C11.3655 21.8179 11.4559 21.938 11.4865 22.076ZM9.09652 21.3068C9.19457 21.1558 9.32442 21.0588 9.47337 21.0228C9.51285 21.0128 9.55363 21.0092 9.59563 21.0092C9.71024 21.0092 9.8286 21.0458 9.9432 21.1192C10.0731 21.2018 10.1406 21.2773 10.1559 21.3586C10.1712 21.4398 10.1381 21.5404 10.0489 21.6778C9.82737 22.0178 9.80951 22.0056 9.71277 21.9438L9.24547 21.6447C9.0086 21.4916 9.00607 21.447 9.09652 21.3068Z" fill="#58574B"></path><path d="M61.168 56.2029C61.1448 56.2209 61.121 56.2396 61.1029 56.2475C61.0386 56.2727 60.8997 56.2798 60.7342 56.241L59.3842 55.9304C59.3322 55.9197 59.3004 55.9118 59.2403 55.86L58.8571 55.5228C58.6598 55.3496 58.6265 55.2942 58.6547 55.1734C58.6648 55.1231 58.6916 55.0764 58.7183 55.0304C58.7617 54.9549 58.8369 54.8269 58.7169 54.722C58.6431 54.6587 58.5245 54.6472 58.4219 54.7622C58.3785 54.8104 58.33 54.8758 58.2729 54.9549C58.1948 55.0613 58.0979 55.1929 57.9772 55.3295C57.8601 55.461 57.7516 55.5609 57.6656 55.6407C57.6092 55.6925 57.5636 55.7356 57.5318 55.7709C57.487 55.8219 57.4653 55.8751 57.4689 55.9269C57.4732 55.9779 57.4971 56.0218 57.5405 56.0599C57.6692 56.1727 57.7986 56.0634 57.8767 55.998C57.9222 55.9599 57.9692 55.9204 58.0119 55.9089C58.116 55.8823 58.1948 55.9319 58.3951 56.108L58.7986 56.4624C58.8441 56.5027 58.8694 56.5257 58.8955 56.5969L59.3597 57.8679C59.4197 58.026 59.4211 58.1375 59.3994 58.1907C59.3944 58.2029 59.3893 58.2144 59.3828 58.2245C59.3597 58.2705 59.3069 58.3776 59.4161 58.4732C59.458 58.5099 59.4999 58.5199 59.5317 58.5199C59.5354 58.5199 59.5382 58.5199 59.5419 58.5199C59.5766 58.5171 59.6265 58.5034 59.6756 58.4488C59.7371 58.3805 59.779 58.3158 59.8123 58.2662C59.8275 58.2424 59.8398 58.2237 59.8629 58.1957C59.8716 58.1828 59.8896 58.1605 59.9193 58.1274C60.0415 57.9908 60.1369 57.901 60.1955 57.8478C60.223 57.8219 60.2439 57.8032 60.2548 57.7903C60.3546 57.6781 60.3199 57.5767 60.2541 57.5192C60.1319 57.4121 60.0234 57.5084 59.9714 57.5537C59.9497 57.5739 59.9244 57.5969 59.8933 57.617C59.8058 57.6767 59.7595 57.6616 59.7038 57.6134C59.6785 57.5918 59.6539 57.5257 59.6199 57.4358L59.3372 56.6637L60.3083 56.8995C60.4066 56.9204 60.4384 56.947 60.442 56.9513C60.4587 56.9664 60.4637 56.97 60.4348 57.0462C60.4102 57.1059 60.3661 57.2173 60.4616 57.3021C60.5006 57.3359 60.5455 57.3589 60.5859 57.3496C60.6488 57.346 60.6929 57.3057 60.7313 57.2626C60.7414 57.2511 60.7566 57.2295 60.7783 57.1993C60.8267 57.131 60.9099 57.016 61.0458 56.8614C61.2099 56.6767 61.3285 56.5652 61.3921 56.5041C61.4174 56.4804 61.4341 56.4639 61.442 56.4545C61.4811 56.4107 61.5208 56.3575 61.5172 56.2892C61.5158 56.2583 61.5028 56.2144 61.4572 56.1734C61.3401 56.0728 61.2244 56.1612 61.168 56.2029Z" fill="#58574B"></path><path d="M58.2346 14.2767C58.3474 14.1703 58.4645 14.0718 58.5549 14.0718C58.5564 14.0718 58.5578 14.0718 58.5593 14.0718C58.5932 14.0725 58.6301 14.0934 58.6684 14.115C58.7299 14.1502 58.842 14.2149 58.9439 14.1171C58.9909 14.0725 59.0025 14.0251 59.0025 13.9935C59.0032 13.9439 58.983 13.8971 58.941 13.8526C58.936 13.8475 58.9222 13.8346 58.9005 13.8159C58.8268 13.7512 58.6547 13.5995 58.3807 13.3119C58.2664 13.1919 58.1948 13.0955 58.1529 13.0388C58.1312 13.0093 58.1146 12.9877 58.1045 12.9762C58.0177 12.8878 57.9006 12.8777 57.8167 12.9575C57.6945 13.0725 57.7885 13.2005 57.8384 13.2688C57.8782 13.322 57.9172 13.3781 57.9252 13.4435C57.9353 13.5427 57.8782 13.6017 57.6945 13.7742L56.4198 14.9784C56.2961 15.0948 56.1805 15.1502 56.1103 15.1286C56.0763 15.1171 56.0467 15.1049 56.0199 15.0934C55.9375 15.0582 55.8269 15.0107 55.73 15.1034C55.6917 15.1387 55.6714 15.1847 55.67 15.2328C55.6685 15.2695 55.6801 15.3263 55.7351 15.3845C55.7719 15.4226 55.8218 15.4658 55.8811 15.5147C55.9599 15.5808 56.0583 15.6642 56.1566 15.767C56.2925 15.9101 56.3916 16.0366 56.4646 16.1286C56.5102 16.1883 56.547 16.2343 56.5781 16.2659C56.6389 16.3292 56.6953 16.3493 56.7437 16.3493C56.8095 16.3493 56.8579 16.3098 56.8782 16.2925C56.9989 16.1768 56.9086 16.0452 56.855 15.9683C56.8341 15.9366 56.8095 15.9021 56.7914 15.8633C56.7589 15.7922 56.7459 15.6858 56.9404 15.5024L58.2346 14.2767Z" fill="#58574B"></path><path d="M65.2691 50.1513C65.0565 50.0004 64.9271 49.8875 64.8584 49.8257C64.8252 49.7962 64.8035 49.7789 64.7948 49.7739C64.7464 49.7444 64.7015 49.7322 64.661 49.7358C64.6083 49.7394 64.5641 49.7689 64.5345 49.8178C64.4506 49.9551 64.5396 50.0471 64.6097 50.1218C64.6495 50.1635 64.6986 50.2146 64.75 50.2901C64.8353 50.4166 64.802 50.5474 64.6032 50.8724C64.5793 50.9119 64.5171 51.0147 64.4955 51.0248C64.4904 51.0248 64.4709 51.0205 64.4109 50.9838L62.6756 49.9335C62.4695 49.8091 62.4558 49.6977 62.4717 49.5942C62.4782 49.5525 62.4912 49.5158 62.5027 49.4835C62.5295 49.4065 62.5729 49.2764 62.4398 49.1966C62.3972 49.17 62.3487 49.1621 62.2989 49.1722C62.2591 49.1822 62.2034 49.2088 62.1564 49.2865C62.1203 49.3433 62.0834 49.4202 62.04 49.5093C61.9829 49.6258 61.912 49.771 61.8187 49.9234C61.7204 50.0823 61.6264 50.2081 61.5563 50.2994C61.5107 50.3598 61.4739 50.408 61.4507 50.4461C61.4153 50.5029 61.4037 50.5589 61.4167 50.6107C61.4276 50.6589 61.4594 50.6991 61.5107 50.7293C61.6532 50.8156 61.7551 50.6955 61.8101 50.6308C61.8354 50.6006 61.8636 50.5697 61.8925 50.5489C61.9923 50.4763 62.0899 50.4583 62.2938 50.5812L64.0052 51.6186C64.0725 51.6589 64.0812 51.6754 64.0826 51.6776C64.0862 51.7056 64.019 51.8156 63.9785 51.8817L63.9387 51.9464C63.7514 52.2498 63.6661 52.2929 63.5374 52.2743C63.4904 52.2663 63.455 52.2577 63.4253 52.2498C63.3494 52.2297 63.246 52.2031 63.1687 52.331C63.0841 52.4705 63.186 52.5309 63.2677 52.5805L63.7045 52.8034C63.7608 52.8314 63.8049 52.8436 63.8447 52.8436C63.9365 52.8436 63.99 52.7739 64.0392 52.6905C64.066 52.6466 64.0992 52.5841 64.1397 52.5043C64.2048 52.3792 64.2937 52.206 64.4188 52.0018L64.9712 51.0996C65.0826 50.9191 65.1831 50.7789 65.2641 50.6661C65.319 50.5913 65.3624 50.5295 65.3942 50.4777C65.4947 50.3116 65.3646 50.2196 65.2691 50.1513Z" fill="#58574B"></path><path d="M47.1366 6.60802C47.1084 6.59796 47.0701 6.58933 47.0202 6.57926C46.9479 6.56417 46.8474 6.5426 46.7274 6.50091C46.6066 6.45777 46.5112 6.4096 46.4331 6.3715C46.3803 6.3449 46.3355 6.32334 46.3001 6.31112C46.1533 6.25792 46.068 6.32693 46.0391 6.40817C45.9827 6.56273 46.1229 6.63965 46.2054 6.68566C46.2574 6.71442 46.3124 6.74533 46.3536 6.78919C46.423 6.86683 46.4129 6.98329 46.3073 7.27157L46.0448 7.99694C45.8872 8.43403 45.7484 8.71368 45.504 8.85315C45.3081 8.96674 45.0608 8.97968 44.8099 8.88982C44.5416 8.79348 44.3761 8.60226 44.3312 8.33627C44.2958 8.12635 44.3667 7.90564 44.4802 7.59291L44.7441 6.86252C44.8316 6.61809 44.9422 6.31471 45.029 6.29314C45.0723 6.28164 45.1143 6.28308 45.1548 6.28452C45.2264 6.28667 45.3413 6.29027 45.3869 6.16805C45.4086 6.10551 45.4187 5.99193 45.2379 5.92866C45.196 5.91357 45.1396 5.89919 45.0687 5.88193C44.9639 5.85533 44.8345 5.82226 44.6812 5.76762C44.5069 5.7058 44.3818 5.64469 44.2907 5.60084C44.238 5.57496 44.1989 5.55771 44.1707 5.5462C43.9827 5.48006 43.9184 5.60587 43.9032 5.64757C43.8497 5.79566 43.9683 5.86396 44.0384 5.90565C44.0803 5.93082 44.1288 5.95885 44.1772 6.00342C44.2242 6.04728 44.2473 6.08395 44.1671 6.30537L43.7962 7.3298C43.6096 7.85029 43.5662 8.2349 43.6624 8.54115C43.7673 8.87328 44.0369 9.11267 44.4881 9.27443C44.7014 9.35063 44.9003 9.38874 45.0854 9.38874C45.6934 9.38874 46.1497 8.97824 46.4447 8.16157L46.6385 7.62455C46.757 7.29601 46.8706 6.98401 46.9364 6.96531C46.9718 6.95669 47.005 6.95741 47.0412 6.95741C47.1019 6.95741 47.2219 6.96244 47.2675 6.8352C47.2943 6.75899 47.2755 6.65906 47.1366 6.60802Z" fill="#58574B"></path><path d="M54.3533 10.1879C54.3099 10.1585 54.2514 10.1268 54.1841 10.0902C54.0908 10.0398 53.9867 9.98305 53.8732 9.90541C53.7893 9.84862 53.7221 9.79039 53.6635 9.73863C53.6151 9.69693 53.5732 9.66026 53.5348 9.63366C53.4712 9.59053 53.4163 9.58766 53.3815 9.59557C53.3497 9.60204 53.3027 9.62073 53.2659 9.67536C53.182 9.7983 53.2774 9.89319 53.3331 9.94998C53.3815 9.99815 53.4379 10.0535 53.4763 10.1448C53.5218 10.2512 53.4828 10.3641 53.3143 10.6085L52.6715 11.5488C52.6549 11.5725 52.6404 11.592 52.6296 11.6056C52.6245 11.5833 52.6202 11.5524 52.6166 11.5143L52.3794 9.09377C52.3635 8.93201 52.3541 8.83353 52.2182 8.74223C52.1784 8.71563 52.13 8.68903 52.0757 8.65955C52.0121 8.62577 51.9376 8.58479 51.8617 8.53303C51.8321 8.51434 51.8082 8.48917 51.7829 8.46473C51.7482 8.43309 51.7149 8.40146 51.6766 8.3763C51.6593 8.36336 51.5992 8.3267 51.5342 8.33964C51.4633 8.3533 51.4206 8.41441 51.4069 8.43454C51.3165 8.56753 51.4149 8.65452 51.4633 8.69622C51.5089 8.73576 51.5544 8.77745 51.5725 8.87019C51.5913 8.96652 51.5291 9.11965 51.3888 9.3231L50.8545 10.1045C50.5573 10.5373 50.2811 10.7839 50.2139 10.8256C50.1271 10.8802 50.057 10.8687 49.9883 10.8565C49.9297 10.8465 49.8422 10.8314 49.7873 10.9097C49.6738 11.0751 49.7837 11.1664 49.8191 11.1915C49.8422 11.2073 49.8791 11.226 49.9283 11.2512C50.0114 11.2929 50.1257 11.3511 50.2623 11.4424C50.3896 11.5287 50.4764 11.6099 50.5385 11.6682C50.5754 11.7019 50.6051 11.7285 50.6267 11.7436C50.6795 11.7803 50.8061 11.8651 50.9152 11.7055C51.0085 11.5704 50.8928 11.4618 50.8234 11.3971C50.7743 11.3504 50.7222 11.3008 50.7121 11.2462C50.6824 11.0909 50.835 10.8565 51.0888 10.487L51.6766 9.62863C51.6809 9.62216 51.6846 9.61713 51.6882 9.6121L51.9824 12.4072L51.989 12.4769C52.0013 12.6099 52.0121 12.7235 52.1112 12.7911C52.1227 12.7983 52.1502 12.8134 52.1885 12.8134C52.2182 12.8134 52.2536 12.8047 52.2934 12.7745C52.3302 12.748 52.3671 12.7048 52.4076 12.6451L53.7091 10.7918C53.8566 10.5826 53.9253 10.5028 54.0504 10.4956C54.0901 10.4927 54.1256 10.5021 54.1624 10.5107C54.2261 10.5273 54.3316 10.5539 54.4083 10.4439C54.4401 10.3993 54.495 10.2843 54.3533 10.1879Z" fill="#58574B"></path><path d="M67.6898 38.1357C67.0456 38.0408 66.8215 38.4088 66.5004 38.9329C66.2271 39.3837 66.1187 39.5382 65.8605 39.4987C65.5243 39.4498 65.4122 39.1738 65.4491 38.9229C65.4845 38.6799 65.6986 38.4592 66.0196 38.3319C66.144 38.2823 66.2394 38.2658 66.3095 38.2528C66.4035 38.2363 66.5098 38.2162 66.5272 38.099C66.5366 38.0393 66.5265 37.9897 66.4983 37.9516C66.4585 37.8984 66.3978 37.8848 66.3558 37.8783C66.3493 37.8769 66.3298 37.8747 66.251 37.8833L65.5518 37.9344C65.4057 37.9444 65.3638 37.9797 65.3204 38.1313C65.2973 38.214 65.2568 38.296 65.2149 38.3837C65.1512 38.5138 65.0833 38.6497 65.0608 38.8129C64.9625 39.4764 65.3291 39.9674 65.9965 40.0645C66.3059 40.1105 66.5821 40.0458 66.7983 39.8812C66.969 39.7518 67.0803 39.5533 67.2097 39.3226L67.2748 39.209C67.4953 38.8179 67.6399 38.6964 67.8366 38.7237C67.9255 38.7367 68.0029 38.7863 68.0557 38.8618C68.1099 38.943 68.1302 39.0508 68.1143 39.1644C68.0767 39.4124 67.9002 39.6382 67.6609 39.7381C67.5243 39.7949 67.4324 39.805 67.3652 39.8129C67.2835 39.8229 67.1714 39.8344 67.1497 39.9789C67.141 40.0379 67.1606 40.0789 67.1794 40.1011C67.2076 40.1385 67.2495 40.1608 67.3052 40.1702C67.3999 40.1838 67.5011 40.1824 67.6023 40.1824C67.7014 40.1809 67.8055 40.1802 67.9002 40.1939C67.9342 40.1989 67.9639 40.2068 67.9892 40.2119C68.013 40.2183 68.034 40.2219 68.0542 40.2255C68.0709 40.2284 68.0875 40.2291 68.1012 40.2291C68.2386 40.2291 68.2704 40.1277 68.2769 40.0803C68.2835 40.0328 68.269 39.994 68.2589 39.966C68.2487 39.9379 68.2415 39.9178 68.2466 39.8812C68.2538 39.8344 68.2849 39.7812 68.3239 39.7151C68.3912 39.6029 68.4758 39.4635 68.5083 39.2435C68.5886 38.6921 68.2372 38.2155 67.6898 38.1357Z" fill="#58574B"></path><path d="M67.3753 44.6001C67.2177 44.5434 67.1439 44.6835 67.1042 44.7597C67.0738 44.8194 67.042 44.8784 66.9856 44.9143C66.9017 44.9675 66.8229 44.9431 66.585 44.8582L64.9307 44.2673C64.7702 44.2105 64.6682 44.1314 64.6567 44.0595C64.6516 44.0243 64.6509 43.9927 64.648 43.9632C64.6415 43.8697 64.635 43.7547 64.5077 43.7087C64.4188 43.6756 64.3067 43.7051 64.2583 43.8403C64.2409 43.8899 64.225 43.9531 64.2062 44.0293C64.1816 44.1293 64.1513 44.2529 64.1028 44.3873C64.0356 44.5735 63.9669 44.718 63.9155 44.8244C63.8837 44.8913 63.8584 44.9459 63.8432 44.9862C63.8179 45.0574 63.8165 45.1163 63.8411 45.1688C63.8563 45.199 63.8866 45.2407 63.9539 45.2644C64.1129 45.3219 64.1896 45.181 64.2351 45.0991C64.2547 45.0646 64.2735 45.0279 64.3002 44.9948C64.3501 44.9344 64.4376 44.8748 64.6914 44.9646L66.3761 45.5663C66.5236 45.6195 66.6674 45.6799 66.7058 45.7626C66.721 45.7942 66.7181 45.8345 66.7159 45.8791C66.7123 45.9481 66.7043 46.0775 66.8366 46.1242C66.8612 46.1336 66.8836 46.1372 66.9046 46.1372C66.9335 46.1372 66.9581 46.1292 66.974 46.1221C67.0189 46.1005 67.0521 46.0609 67.0724 46.0041C67.0752 45.9977 67.0803 45.9797 67.0861 45.9531C67.1092 45.8676 67.1707 45.6397 67.3066 45.2637C67.363 45.1077 67.4172 45.0027 67.4491 44.9395C67.4657 44.9064 67.4787 44.8827 67.4838 44.8669C67.5279 44.7468 67.4823 44.6382 67.3753 44.6001Z" fill="#58574B"></path><path d="M16.5427 15.9415C16.5274 15.9494 16.5096 15.9595 16.4892 15.9681C16.3835 16.0163 16.3186 16.0062 16.1773 15.9494L13.4906 14.8387C13.3989 14.8035 13.3174 14.8121 13.2652 14.8631C13.1888 14.9379 13.2168 15.0177 13.2347 15.063L14.1998 17.6568C14.2724 17.8531 14.3144 17.9803 14.2876 18.0903C14.2826 18.114 14.2711 18.137 14.2597 18.1622C14.2316 18.2219 14.1871 18.3218 14.2788 18.4152C14.3182 18.4548 14.3654 18.4749 14.4124 18.4749C14.4608 18.4749 14.5105 18.4548 14.5538 18.4116C14.5678 18.398 14.5869 18.3735 14.6111 18.3397C14.6505 18.2851 14.7091 18.2039 14.8046 18.1119C14.9333 17.9875 15.0466 17.9012 15.1306 17.838C15.1828 17.7991 15.2236 17.7675 15.2503 17.7416C15.3382 17.6568 15.3407 17.5518 15.2567 17.4649C15.1523 17.3585 15.0364 17.4332 14.9333 17.4986C14.7384 17.6252 14.6837 17.5698 14.6607 17.5454C14.6403 17.5252 14.6213 17.4929 14.5983 17.4404L14.4469 17.1126C14.3908 16.9925 14.4023 16.9825 14.5423 16.8466L14.96 16.4419L14.8899 16.3707L14.9791 16.4239C15.1115 16.2952 15.1128 16.2952 15.2413 16.352L15.5418 16.48C15.5966 16.5015 15.6437 16.5317 15.6781 16.5669C15.7379 16.628 15.7265 16.6762 15.6832 16.7797C15.6539 16.8509 15.6094 16.9573 15.6909 17.0407C15.7329 17.0824 15.7825 17.1061 15.8347 17.1076C15.8729 17.1111 15.9175 17.0925 15.948 17.0637C15.9557 17.0558 15.9697 17.0393 15.9901 17.0127C16.0423 16.9444 16.1518 16.8042 16.3529 16.6079C16.4599 16.5037 16.5656 16.4217 16.6484 16.3556C16.7133 16.3053 16.7668 16.2621 16.8075 16.2226C16.8393 16.1924 16.8725 16.1529 16.8725 16.0975C16.8738 16.0393 16.8381 15.9961 16.8075 15.9659C16.7056 15.856 16.6114 15.9048 16.5427 15.9415ZM14.6913 16.1126C14.6862 16.1191 14.6786 16.1255 14.6709 16.1342L14.3017 16.4922C14.2699 16.5231 14.2482 16.5418 14.2329 16.5547C14.2279 16.5447 14.2227 16.5332 14.2177 16.5181L13.9362 15.792L14.6403 16.0889C14.6607 16.0975 14.6773 16.1047 14.6913 16.1126Z" fill="#58574B"></path><path d="M15.468 55.7099C15.4043 55.6416 15.3165 55.5496 15.2209 55.4173C15.1306 55.2922 15.0771 55.1887 15.0389 55.1125C15.016 55.0672 14.9982 55.0327 14.9828 55.0111C14.9447 54.9594 14.8543 54.8379 14.6977 54.9493C14.564 55.0456 14.634 55.1873 14.6773 55.2707C14.7079 55.3318 14.7397 55.395 14.7308 55.4504C14.7053 55.6064 14.4799 55.7746 14.1158 56.037L13.2677 56.6445C13.2627 56.6481 13.2563 56.6517 13.2525 56.656L13.954 53.858C13.9884 53.7286 14.0177 53.6172 13.9477 53.5208C13.884 53.4339 13.7733 53.4468 13.6179 53.5575L11.7589 54.8566C11.5475 55.0025 11.4571 55.0528 11.3349 55.0198C11.2954 55.009 11.2661 54.9881 11.2343 54.968C11.1808 54.9313 11.0904 54.8695 10.9809 54.9479C10.935 54.9809 10.9083 55.019 10.9019 55.0629C10.8917 55.124 10.9223 55.1743 10.9452 55.206C10.9758 55.2491 11.0204 55.2987 11.0713 55.3569C11.14 55.4353 11.219 55.5237 11.2992 55.6344C11.359 55.7164 11.4023 55.7947 11.4393 55.863C11.4699 55.9191 11.4966 55.9673 11.5246 56.0054C11.5959 56.101 11.7016 56.1225 11.792 56.0571C11.9143 55.9694 11.8569 55.8479 11.8226 55.7746C11.7933 55.7128 11.7614 55.6416 11.7563 55.5431C11.75 55.4137 11.8556 55.3138 12.067 55.1621L12.9953 54.4971C13.0194 54.4806 13.0385 54.4669 13.0551 54.4583C13.0513 54.4806 13.0449 54.5115 13.036 54.5482L12.4261 56.9011C12.3853 57.0593 12.3599 57.1556 12.4567 57.2872C12.4847 57.3267 12.5216 57.3684 12.5636 57.4151C12.612 57.4698 12.6667 57.5309 12.7202 57.6049C12.7406 57.633 12.7559 57.6646 12.7711 57.6962C12.7915 57.7379 12.8131 57.7789 12.8399 57.8156C12.8526 57.8328 12.8921 57.8875 12.9609 57.899C12.9698 57.9004 12.9774 57.9004 12.9851 57.9004C13.0462 57.9004 13.0946 57.8652 13.1124 57.8537C13.2436 57.7595 13.1799 57.643 13.1494 57.5877C13.12 57.5345 13.0907 57.4798 13.106 57.3878C13.1213 57.2915 13.2321 57.1685 13.4345 57.0226L14.2062 56.4712C14.634 56.1642 14.9778 56.0262 15.0554 56.0111C15.1573 55.9896 15.2184 56.0255 15.2783 56.0586C15.3292 56.0873 15.4069 56.1319 15.4846 56.0773C15.5457 56.0341 15.5788 55.9874 15.5877 55.9342C15.5928 55.9026 15.5915 55.853 15.5533 55.8012C15.5342 55.7811 15.5062 55.7494 15.468 55.7099Z" fill="#58574B"></path><path d="M11.0421 50.1465C11.0752 50.1817 11.1299 50.2414 11.2114 50.2414C11.233 50.2414 11.2573 50.2378 11.2815 50.2277C11.3451 50.2033 11.3744 50.1616 11.3884 50.1314C11.4024 50.0983 11.4139 50.0451 11.3871 49.974V49.9733C11.3795 49.9553 11.3655 49.9287 11.3438 49.8949C11.3095 49.8374 11.256 49.7518 11.2076 49.6275C11.1427 49.4614 11.1083 49.3234 11.0828 49.2234C11.0662 49.1602 11.0535 49.1099 11.0396 49.0753C11.0179 49.02 10.9835 48.9804 10.9389 48.9603C10.9071 48.9452 10.8549 48.9337 10.7861 48.9618C10.6461 49.015 10.6703 49.1516 10.6906 49.2716C10.7314 49.4995 10.6588 49.5275 10.627 49.5398C10.6015 49.5505 10.5646 49.5556 10.5047 49.5556L10.1431 49.5656C10.0094 49.5707 10.0056 49.5592 9.93301 49.3744L9.71147 48.8093C9.64401 48.6375 9.64401 48.6375 9.74711 48.5398L9.98268 48.3147C10.0247 48.273 10.0705 48.2414 10.1164 48.2249C10.1966 48.1954 10.236 48.2234 10.315 48.3032C10.3685 48.3579 10.4487 48.4398 10.5595 48.3981C10.6143 48.3766 10.6563 48.3385 10.6767 48.2932C10.6932 48.2536 10.6944 48.2119 10.6792 48.1738C10.6754 48.1638 10.6652 48.1436 10.6486 48.1149C10.6066 48.0401 10.5187 47.8856 10.4169 47.6246C10.3621 47.4844 10.3277 47.3564 10.2984 47.2536C10.2768 47.1753 10.259 47.1091 10.2386 47.0559C10.194 46.9445 10.1177 46.9107 9.99924 46.956C9.85918 47.0106 9.86808 47.1142 9.87444 47.1918C9.87574 47.2091 9.87827 47.2285 9.87827 47.2508C9.8821 47.3672 9.84646 47.4219 9.73822 47.5297L7.66019 49.5541C7.59143 49.6239 7.56721 49.7008 7.59396 49.7676C7.63344 49.869 7.71876 49.8733 7.76713 49.8755L10.5467 50.007C10.7568 50.0171 10.8905 50.0272 10.9822 50.0962C11.0064 50.1084 11.0242 50.1278 11.0421 50.1465ZM9.27092 48.9883C9.28747 48.9725 9.3015 48.9603 9.31292 48.9502C9.31676 48.9574 9.32059 48.9668 9.32442 48.9783L9.51155 49.4549C9.52687 49.4959 9.53699 49.5239 9.54213 49.5426C9.53063 49.5441 9.51791 49.5426 9.50265 49.5426L8.72082 49.516L9.27092 48.9883Z" fill="#58574B"></path><path d="M6.27867 43.4119C6.229 43.4032 6.1666 43.3932 6.08642 43.3522C5.97941 43.3004 5.89033 43.0991 5.84832 42.813C5.82157 42.6311 5.8228 42.5499 5.82793 42.5147C5.89792 42.5219 6.0635 42.5563 6.29907 42.6433L8.48526 43.4485C8.51201 43.4586 8.53493 43.4686 8.55662 43.478C8.62408 43.5067 8.68135 43.5333 8.74635 43.5233C8.82017 43.5132 8.89277 43.4579 8.87491 43.3321C8.87108 43.3098 8.86471 43.2767 8.85452 43.2321C8.83543 43.1423 8.80362 43.0021 8.77433 42.8015C8.71447 42.3953 8.68901 42.0977 8.67375 41.9194C8.66739 41.8382 8.66226 41.7799 8.6572 41.7461C8.5846 41.2472 8.15931 41.0424 7.7761 41.0963C7.62455 41.1193 7.58254 41.2077 7.59273 41.2774C7.60546 41.3658 7.68311 41.409 7.7646 41.455C7.8283 41.4902 7.89959 41.5305 7.96835 41.5988C8.12113 41.7498 8.21535 41.9748 8.26372 42.3069L8.28664 42.4615C8.293 42.5017 8.30197 42.5664 8.3045 42.6096C8.29936 42.6081 8.293 42.6052 8.28541 42.6031L5.56431 41.6031C5.47906 41.5715 5.42172 41.5614 5.36952 41.5686C5.32498 41.5751 5.22564 41.6132 5.25369 41.808C5.25622 41.8231 5.26258 41.8561 5.27278 41.9057C5.30459 42.0589 5.37205 42.3766 5.44595 42.8791C5.49815 43.2357 5.50958 43.4615 5.51594 43.57C5.51724 43.606 5.51847 43.6282 5.52107 43.6383C5.5236 43.6613 5.53379 43.7296 5.59236 43.7727C5.62801 43.7993 5.66749 43.8073 5.7095 43.8073C5.74261 43.8073 5.77573 43.8022 5.80884 43.7972L5.83935 43.7914C5.96668 43.7727 6.08006 43.7756 6.16914 43.7763C6.23537 43.7778 6.28757 43.7778 6.32574 43.7713C6.3449 43.7692 6.4047 43.7598 6.44418 43.7124C6.47346 43.6764 6.48366 43.6311 6.47599 43.5765C6.4569 43.4421 6.34997 43.4248 6.27867 43.4119Z" fill="#58574B"></path><path d="M27.1774 8.73565C27.0806 8.76441 27.059 8.85068 27.0399 8.92688C27.0245 8.99014 27.0054 9.06851 26.9456 9.16196C26.8297 9.34456 26.5751 9.52141 26.3141 9.60121C26.1995 9.63716 26.1256 9.64578 26.0925 9.62637C26.0479 9.60265 26.0136 9.50129 25.9753 9.37979L25.7691 8.71552C25.7462 8.64147 25.7372 8.59619 25.7424 8.57821C25.7436 8.57462 25.7576 8.56167 25.8085 8.54586L25.9766 8.49482C26.2135 8.42149 26.286 8.44522 26.3688 8.54946C26.3956 8.58325 26.4121 8.61776 26.4274 8.65226C26.458 8.71768 26.5178 8.83917 26.668 8.79101C26.733 8.77232 26.7635 8.73134 26.7775 8.70258C26.7966 8.66232 26.7992 8.61487 26.7826 8.56311C26.7788 8.55089 26.7686 8.52645 26.7533 8.49266C26.7151 8.40352 26.6439 8.23817 26.5636 7.98224C26.5305 7.87584 26.5152 7.79964 26.5063 7.75148C26.5012 7.72416 26.4961 7.7033 26.4923 7.69108C26.4847 7.66664 26.463 7.5962 26.3994 7.56313C26.3739 7.55019 26.3332 7.53653 26.2797 7.5545C26.146 7.59476 26.1319 7.71266 26.1205 7.79749C26.1155 7.83631 26.1103 7.87872 26.0963 7.91898C26.0683 7.99878 26.0148 8.05916 25.8289 8.11668L25.6914 8.15837C25.6099 8.18353 25.5997 8.17491 25.5768 8.1023L25.3706 7.43804C25.3425 7.34889 25.3629 7.32373 25.3731 7.31151C25.4011 7.27556 25.466 7.24249 25.5756 7.21014C26.0212 7.07283 26.1689 7.1059 26.2631 7.20582C26.2886 7.23386 26.3039 7.26909 26.3179 7.30503C26.3408 7.36183 26.3968 7.49483 26.5534 7.44666C26.7177 7.39634 26.6757 7.26046 26.6616 7.21589L26.6477 7.17348C26.6285 7.1174 26.5929 7.011 26.5445 6.85572L26.5165 6.76586C26.4948 6.69325 26.4643 6.61489 26.3841 6.5847C26.3179 6.55954 26.244 6.58039 26.1727 6.60339C26.0836 6.63143 25.9716 6.66953 25.8366 6.7177C25.629 6.79102 25.3718 6.88233 25.0547 6.97938C24.6396 7.1059 24.385 7.16198 24.2768 7.18426C24.2449 7.19073 24.2246 7.19576 24.217 7.19864C24.0743 7.24249 24.0387 7.35536 24.0667 7.44666C24.1151 7.60267 24.2666 7.57966 24.348 7.56815C24.4156 7.55809 24.4856 7.54802 24.5493 7.57606C24.6485 7.62279 24.683 7.70762 24.7492 7.91898L25.2674 9.58899C25.3336 9.80178 25.2928 9.88661 25.2394 9.94844C25.2177 9.9736 25.1948 9.99373 25.1745 10.0131C25.1184 10.062 25.0344 10.1368 25.0726 10.2597C25.0981 10.3446 25.1643 10.3913 25.2496 10.3913C25.2738 10.3913 25.3005 10.3877 25.3285 10.3791C25.3565 10.3697 25.3986 10.3532 25.4558 10.3295C25.5717 10.2813 25.7462 10.2094 25.9932 10.1332C26.174 10.0771 26.3382 10.0405 26.4847 10.0067C26.6057 9.97864 26.7126 9.95491 26.8055 9.92544C27.1086 9.83342 27.2856 9.67957 27.362 9.44449C27.4294 9.23529 27.4192 8.97576 27.3862 8.86865C27.3569 8.7644 27.2639 8.70618 27.1774 8.73565Z" fill="#58574B"></path><path d="M21.0285 12.3428C20.9725 12.3644 20.9177 12.3881 20.8732 12.3845C20.765 12.3773 20.7064 12.3047 20.5727 12.0768L20.3015 11.6138C20.2709 11.5606 20.2531 11.5312 20.2518 11.4557L20.2136 10.1041V10.1034C20.206 9.93375 20.2416 9.82879 20.2786 9.78422C20.2862 9.77415 20.2964 9.76553 20.304 9.75618C20.341 9.71952 20.425 9.63468 20.3512 9.51103C20.3193 9.4564 20.2773 9.43626 20.2467 9.42836C20.2136 9.41973 20.1614 9.41685 20.099 9.45352C20.0201 9.49953 19.959 9.54626 19.9118 9.58436C19.8889 9.60162 19.8711 9.61671 19.838 9.63756C19.8252 9.64619 19.8011 9.66272 19.7667 9.68285C19.6075 9.77559 19.4879 9.82951 19.4153 9.86114C19.3808 9.87695 19.3554 9.88917 19.3414 9.89708C19.2115 9.97257 19.2128 10.079 19.2561 10.1537C19.3401 10.2954 19.4675 10.24 19.5362 10.2098C19.563 10.1983 19.5935 10.1839 19.6304 10.1739C19.7323 10.1465 19.7705 10.1731 19.8087 10.2371C19.8252 10.2666 19.8291 10.3349 19.8329 10.4312L19.8571 11.2529L19.0104 10.7245C18.9237 10.6742 18.9008 10.6376 18.8996 10.634C18.8881 10.6131 18.8843 10.6081 18.9378 10.5463C18.9798 10.4966 19.0574 10.4061 18.9925 10.2954C18.9505 10.2249 18.8958 10.2084 18.8576 10.2055C18.8041 10.2069 18.7646 10.2249 18.7239 10.2472C18.7111 10.2551 18.6895 10.2702 18.6589 10.2932C18.5901 10.3435 18.4768 10.4276 18.2986 10.5312C18.0821 10.6555 17.9332 10.7245 17.8542 10.7626C17.8236 10.777 17.8032 10.7871 17.793 10.7928C17.6275 10.8892 17.6581 10.9999 17.6912 11.0552C17.7689 11.1882 17.9064 11.1415 17.9726 11.1185C18.0006 11.1084 18.0286 11.0998 18.049 11.0969C18.1139 11.0897 18.2502 11.1271 18.3966 11.2184L19.5808 11.9366C19.6254 11.9632 19.6547 11.9805 19.6941 12.0488L19.9513 12.4887C20.0837 12.7152 20.0977 12.777 20.0328 12.882C20.0074 12.928 19.9666 12.9632 19.9271 12.9984C19.8609 13.0567 19.7501 13.1559 19.8304 13.291C19.8622 13.3457 19.9195 13.3845 19.992 13.3845C20.0315 13.3845 20.0761 13.373 20.1232 13.3457C20.1792 13.3126 20.2467 13.2659 20.3269 13.2091C20.4339 13.1329 20.5676 13.038 20.7255 12.9467C20.877 12.859 21.0107 12.7986 21.1177 12.7504C21.189 12.7173 21.2475 12.6907 21.2883 12.6685C21.4232 12.5894 21.4207 12.4729 21.3723 12.391C21.2819 12.2429 21.1227 12.3061 21.0285 12.3428Z" fill="#58574B"></path><path d="M34.1805 4.98451C34.1347 4.95432 34.0825 4.95288 34.0506 4.95647C34.0239 4.95935 33.9895 4.96654 33.9449 4.97588C33.8813 4.99098 33.7947 5.00967 33.6827 5.01902C33.5554 5.02764 33.4407 5.02405 33.3414 5.01902C33.2637 5.0147 33.1963 5.01326 33.1428 5.01758C33.0205 5.0262 32.9492 5.10312 32.9581 5.2203C32.9696 5.36912 33.1084 5.38565 33.1912 5.39572C33.2141 5.39859 33.2395 5.40075 33.2651 5.40578C33.3847 5.43023 33.4407 5.49349 33.4496 5.61858C33.4522 5.66171 33.4535 5.77817 33.3949 5.9349L32.8856 7.34322L32.1369 5.86301C32.0987 5.78465 32.0656 5.71779 32.0605 5.65021C32.0554 5.57042 32.0745 5.53806 32.1547 5.49205L32.1993 5.46833C32.2693 5.43166 32.3648 5.38062 32.3559 5.25769C32.3534 5.2088 32.3291 5.16136 32.291 5.12973C32.254 5.0981 32.2069 5.08084 32.1623 5.08731C32.1471 5.08803 32.1203 5.09306 32.0795 5.10241C31.9955 5.12254 31.8402 5.1592 31.6059 5.17573C31.4175 5.18795 31.2583 5.18292 31.1437 5.17789C31.0686 5.17573 31.01 5.17286 30.9667 5.17717C30.9311 5.17933 30.8776 5.18724 30.8369 5.2239C30.7986 5.25913 30.7808 5.30729 30.7859 5.36912C30.7961 5.51506 30.9145 5.54309 31.0087 5.56538L31.0711 5.58191C31.1526 5.60492 31.1959 5.64877 31.2697 5.78968L32.6093 8.36335C32.6628 8.46184 32.7315 8.48484 32.7837 8.48484C32.7876 8.48484 32.7914 8.48484 32.7951 8.48484C32.9047 8.47765 32.9327 8.39642 32.9492 8.35184L33.9514 5.57544C34.0239 5.3835 34.0608 5.34899 34.0595 5.34899L34.0851 5.33533C34.1602 5.29579 34.2544 5.24619 34.2442 5.1096C34.2429 5.0413 34.2086 5.0032 34.1805 4.98451Z" fill="#58574B"></path><path d="M36.6074 71.9575C16.8877 71.9575 0.844116 56.0058 0.844116 36.3991C0.844116 16.7925 16.8877 0.84082 36.6074 0.84082C56.3272 0.84082 72.3708 16.7925 72.3708 36.3991C72.3708 56.0058 56.3272 71.9575 36.6074 71.9575ZM36.6074 1.63952C17.3296 1.63952 1.64756 17.2332 1.64756 36.3991C1.64756 55.5658 17.3296 71.1588 36.6074 71.1588C55.8854 71.1588 71.5668 55.5658 71.5668 36.3991C71.5668 17.2332 55.884 1.63952 36.6074 1.63952Z" fill="#DDAF53"></path><path d="M32.7773 16.2303C32.9593 16.1225 33.1822 16.0513 33.3643 16.0513C33.4624 16.0513 33.5336 16.0678 33.6036 16.1225C33.6814 16.1793 33.7246 16.2526 33.7246 16.3683C33.7246 16.5596 33.61 16.7278 33.4954 16.868C33.279 17.1304 32.9593 17.4287 32.8715 17.5085L32.7021 17.6631V18.052H34.2951V17.6667H33.4853L33.2561 17.6832L33.2522 17.6731L33.4381 17.5186C33.5489 17.4251 33.8163 17.1491 33.9373 16.9988C34.2136 16.653 34.2302 16.4007 34.2302 16.2936C34.2302 16.1253 34.1486 15.9442 34.001 15.8277C33.8354 15.6969 33.6164 15.6768 33.4509 15.6768C33.2892 15.6768 33.0498 15.7034 32.7353 15.8479L32.7773 16.2303ZM35.5709 15.6768C35.2029 15.6768 34.7203 15.8234 34.7203 16.878C34.7203 17.9327 35.2029 18.08 35.5709 18.08C35.9389 18.08 36.4215 17.9327 36.4215 16.878C36.4215 15.8234 35.9389 15.6768 35.5709 15.6768ZM35.5709 16.0456C35.8981 16.0456 35.9326 16.5021 35.9326 16.8773C35.9326 17.2519 35.8981 17.7091 35.5709 17.7091C35.2436 17.7091 35.2093 17.2519 35.2093 16.8773C35.2093 16.5021 35.2436 16.0456 35.5709 16.0456ZM37.6235 15.7034L36.9448 16.2907L37.1714 16.5696L37.5763 16.2174V18.052H38.0552V15.7034H37.6235ZM39.7153 15.6768C39.3473 15.6768 38.865 15.8234 38.865 16.878C38.865 17.9327 39.3473 18.08 39.7153 18.08C40.0833 18.08 40.5663 17.9327 40.5663 16.878C40.5663 15.8234 40.0833 15.6768 39.7153 15.6768ZM39.7153 16.0456C40.0428 16.0456 40.0768 16.5021 40.0768 16.8773C40.0768 17.2519 40.0428 17.7091 39.7153 17.7091C39.3885 17.7091 39.3538 17.2519 39.3538 16.8773C39.3538 16.5021 39.3885 16.0456 39.7153 16.0456Z" fill="#DDAF53"></path><path d="M54.6549 53.9592C59.2708 49.2878 61.8658 43.0477 61.8658 36.3986C61.8658 22.5511 50.535 11.2852 36.6074 11.2852C22.68 11.2852 11.3489 22.5511 11.3489 36.3986C11.3489 43.0031 13.9287 49.2475 18.5113 53.9175C18.5075 53.9189 18.5037 53.9218 18.5011 53.9225C19.1556 54.5861 19.8495 55.2144 20.5779 55.8039C20.5893 55.8132 20.6008 55.8233 20.6122 55.8334L20.6135 55.8319C22.1822 57.0965 23.9151 58.1842 25.7882 59.0627L26.1307 58.3402C24.2577 57.4624 22.5311 56.3661 20.9726 55.09C15.3662 50.4488 12.1537 43.6494 12.1537 36.3986C12.1537 22.9918 23.1244 12.0839 36.6074 12.0839C50.0918 12.0839 61.0625 22.9918 61.0625 36.3986C61.0625 42.9478 58.4639 49.0879 53.8494 53.6357C53.7981 53.686 53.7446 53.7356 53.694 53.7859C53.5971 53.8794 53.4987 53.9736 53.3997 54.067C53.3375 54.1252 53.2746 54.1835 53.211 54.2417C53.1206 54.3244 53.0302 54.4049 52.9391 54.4861C52.6152 54.7737 52.284 55.0548 51.9442 55.3258C51.9428 55.3258 51.9427 55.3265 51.942 55.3265C50.4482 56.5177 48.8033 57.5451 47.0297 58.3768L47.3717 59.0993C49.1026 58.2877 50.7143 57.2978 52.1879 56.1533L52.1886 56.1547C52.2833 56.0814 52.3737 56.0066 52.4662 55.9318C52.5313 55.8801 52.5964 55.8283 52.6615 55.7751C52.7338 55.7155 52.8053 55.6558 52.8762 55.5961C52.9977 55.4962 53.1155 55.3941 53.2341 55.2913C53.2724 55.2582 53.3122 55.2244 53.3498 55.1914C53.6961 54.8873 54.0338 54.5746 54.362 54.2518C54.3714 54.2431 54.3787 54.2352 54.3881 54.2266C54.4785 54.1382 54.5696 54.0483 54.6592 53.9585C54.6578 53.9606 54.6563 53.9592 54.6549 53.9592Z" fill="#DDAF53"></path><path d="M36.6074 10.4131C22.1249 10.4131 10.3418 22.1283 10.3418 36.5279C10.3418 43.8104 13.3595 50.6694 18.6755 55.6047C18.6705 55.6068 18.6641 55.6097 18.659 55.6119C20.616 57.4149 22.8634 58.9318 25.3451 60.0935L25.5157 59.7326C23.6019 58.8362 21.8307 57.7247 20.2264 56.4321L20.229 56.4285C14.2012 51.5177 10.7442 44.2647 10.7442 36.5279C10.7442 22.349 22.3465 10.8121 36.6074 10.8121C50.8683 10.8121 62.4717 22.3476 62.4717 36.5279C62.4717 43.8003 59.4414 50.5947 54.096 55.4638C52.1965 57.192 50.0245 58.6493 47.6305 59.7707L47.8011 60.1316C49.6001 59.2883 51.2761 58.2582 52.8075 57.0691L52.8111 57.0741C59.2057 52.0814 62.8744 44.5926 62.8744 36.5279C62.873 22.1276 51.0903 10.4131 36.6074 10.4131Z" fill="#DDAF53"></path><path d="M22.5413 49.4669V48.8134L24.8421 48.487V24.306L22.5413 23.9797V23.3262H28.1285V48.487L30.4294 48.8134V49.4669H22.5413Z" fill="#58574B"></path><path d="M36.5908 49.3377C35.4626 48.8143 34.5701 48.1069 33.9118 47.2133C33.2548 46.3205 32.9262 45.3176 32.9262 44.2062C32.9262 43.314 33.1783 42.6109 33.6826 42.0983C34.1868 41.5872 34.7891 41.3298 35.4906 41.3298C36.1477 41.3298 36.7168 41.5376 37.1994 41.9503C37.6807 42.3643 37.9229 42.9632 37.9229 43.7482C36.7614 44.3154 36.1808 45.186 36.1808 46.3622C36.1808 47.2558 36.5589 47.9804 37.3153 48.5347C38.0718 49.0904 39.074 49.3679 40.3227 49.3679C41.9669 49.3679 43.264 48.6713 44.2162 47.2766C45.1699 45.8827 45.6464 44.0746 45.6464 41.8518C45.6464 39.2817 45.0824 37.3486 43.9545 36.0517C42.8258 34.7555 41.3299 34.107 39.4687 34.107C38.4832 34.107 37.4082 34.2918 36.2483 34.6627L35.6562 34.2379L37.1027 23.3235H45.812C47.1258 23.3235 48.0845 23.2207 48.6868 23.0129C49.2891 22.8066 49.7005 22.3221 49.9196 21.5586L50.6759 21.5917C50.5002 23.7045 49.9695 25.1589 49.0816 25.954C48.1944 26.7491 46.9399 27.1466 45.3196 27.1466H37.4642L36.6099 33.6491C37.7052 33.3436 38.8563 33.1919 40.0602 33.1919C42.0102 33.1919 43.7586 33.5729 45.303 34.3349C46.8474 35.0984 48.0469 36.143 48.9008 37.4722C49.7555 38.8015 50.1835 40.2716 50.1835 41.8834C50.1835 43.2558 49.8328 44.5685 49.1315 45.8201C48.4301 47.0739 47.3398 48.1033 45.8619 48.9085C44.3833 49.7137 42.5373 50.117 40.3241 50.117C38.9619 50.1213 37.719 49.8603 36.5908 49.3377Z" fill="#58574B"></path><path d="M36.5221 65.9656C35.4283 65.9656 34.686 64.9721 34.686 64.0605C34.6847 62.9973 34.6872 63.0361 34.686 61.9728H32.1495V63.4401C32.1495 64.1152 32.1508 64.7471 32.1915 65.3409C32.2628 66.3581 32.7136 66.962 33.2637 67.4854C34.0213 68.2057 35.2946 68.5005 36.6061 68.5005C37.9178 68.5005 39.1911 68.2057 39.9489 67.4854C40.4984 66.962 40.9503 66.3581 41.0204 65.3409C41.0616 64.7471 41.0623 64.1152 41.0623 63.4401V61.9728H38.5237C38.5223 63.0361 38.5252 62.9973 38.5237 64.0605C38.5252 64.6227 38.1188 65.9656 36.5221 65.9656ZM32.1495 55.2705V61.6651H34.6847L34.6821 58.5171L38.5252 61.6651H41.0638V55.2705H38.5252L38.5237 58.6055L34.691 55.2705H32.1495ZM38.2143 57.8219C38.2143 57.1087 38.2143 55.5343 38.2143 55.2705H35.245C35.2144 55.2834 35.1876 55.305 35.1838 55.3402C35.1826 55.3582 35.1901 55.3733 35.1978 55.387C36.2979 56.2238 37.1625 55.8205 37.3943 55.704C37.1358 56.7155 37.732 57.479 38.0407 57.7953L38.0465 57.7938C38.0487 57.8039 38.0574 57.8075 38.0624 57.8154C38.0755 57.8284 38.0885 57.8406 38.0993 57.8521C38.1174 57.86 38.1376 57.8657 38.1586 57.8607C38.1825 57.8557 38.2013 57.8406 38.2143 57.8219ZM37.6413 64.3977C37.281 64.5515 37.0314 64.5695 36.6761 64.4617C36.3501 64.343 36.1057 64.0253 36.1057 63.5932C36.1082 63.1741 36.3705 62.8657 36.727 62.8679C37.0492 62.8794 37.2389 63.0835 37.2313 63.425C37.2288 63.5717 37.1727 63.6709 37.0988 63.7607C37.0925 63.7938 37.0976 63.8262 37.1256 63.8477C37.1371 63.8571 37.151 63.8556 37.1638 63.8592C37.4579 63.7888 37.6426 63.4717 37.6324 63.1986C37.5954 62.5817 37.104 62.3934 36.629 62.425C36.1261 62.4718 35.7225 62.8312 35.674 63.3732C35.6282 63.829 35.6791 64.1432 35.8982 64.4746C36.3489 65.072 37.0607 65.1604 37.7747 64.8686L37.7761 64.8693C37.813 64.8355 37.873 64.8369 37.9077 64.8743C37.9381 64.9067 37.9352 64.9534 37.9113 64.9872C36.9257 66.1964 35.3659 65.4559 35.1011 64.5199L35.0959 64.5142C34.9915 64.2101 34.9877 63.8894 34.9979 63.5292C35.0043 63.2072 34.9979 60.3675 34.9954 59.3222C35.0069 59.2913 35.0272 59.2647 35.0628 59.259C35.0794 59.2561 35.0934 59.264 35.1087 59.2698C35.124 59.2841 35.1405 59.3014 35.1583 59.3194C35.1609 59.3258 35.1672 59.3294 35.1685 59.3359L35.1737 59.3345C35.5327 59.6954 36.2674 60.617 35.7695 61.7385C35.7619 61.7715 35.767 61.806 35.795 61.8283C35.8128 61.8427 35.8345 61.8463 35.8548 61.8463C35.8739 61.8362 35.8968 61.8283 35.9172 61.8197C35.9198 61.8175 35.9223 61.8183 35.9249 61.8161H35.9261C36.1197 61.7248 36.3476 61.6651 36.6519 61.6651C37.2096 61.6651 37.6311 61.8147 37.9916 62.2654C38.2005 62.5566 38.3112 62.806 38.3112 63.187C38.3126 63.7406 38.1376 64.1554 37.6413 64.3977Z" fill="#DDAF53"></path><path d="M90.6002 27.8727V27.3551L92.9052 26.9856V19.4946L86.8837 9.04754L84.925 8.70319V8.16113H92.3846V8.70319L90.0796 9.04754L95.2833 17.9921L100.066 9.88578L97.0916 8.70319V8.16113H102.643V8.70319L100.734 9.91095L95.5805 18.683V26.987L97.8848 27.3565V27.8741H90.6002V27.8727Z" fill="#58574B"></path><path d="M103.835 27.2916C102.844 26.7409 102.059 25.9645 101.481 24.963C100.903 23.9616 100.614 22.8035 100.614 21.4893C100.614 20.1752 100.899 19.022 101.468 18.0271C102.039 17.0328 102.807 16.2607 103.773 15.7101C104.739 15.1594 105.817 14.8848 107.007 14.8848C108.047 14.8848 108.981 15.1148 109.807 15.5749C110.634 16.0343 111.278 16.6712 111.74 17.4836C112.202 18.2967 112.441 19.2298 112.458 20.2801H103.339V22.7201C103.339 24.1658 103.664 25.3354 104.318 26.2305C104.97 27.1255 105.916 27.5741 107.156 27.5741C108.295 27.5741 109.304 27.2535 110.18 26.6129C111.056 25.9724 111.592 25.1428 111.79 24.1241H112.361C112.13 25.339 111.544 26.3088 110.602 27.0321C109.659 27.7545 108.511 28.1154 107.157 28.1154C105.934 28.1169 104.826 27.8423 103.835 27.2916ZM109.733 19.6647C109.733 18.2356 109.51 17.1723 109.065 16.475C108.619 15.7769 107.925 15.4275 106.983 15.4275C105.876 15.4275 105.017 15.8136 104.405 16.5864C103.794 17.3585 103.447 18.3851 103.366 19.6662H109.733V19.6647Z" fill="#58574B"></path><path d="M115.607 27.2925C114.929 26.7418 114.591 25.9251 114.591 24.8403C114.591 23.2954 115.243 22.1991 116.549 21.5506C117.854 20.9029 119.366 20.5772 121.084 20.5772H122.745V18.6793C122.745 17.8253 122.649 17.1639 122.46 16.6959C122.27 16.2272 121.977 15.8993 121.58 15.7095C121.184 15.5212 120.646 15.4263 119.969 15.4263C119.192 15.4263 118.614 15.578 118.235 15.8814C117.854 16.1855 117.664 16.5916 117.664 17.1006C117.664 17.5773 117.896 17.8893 118.358 18.0381C118.358 18.4493 118.202 18.8102 117.887 19.1215C117.573 19.4342 117.201 19.5902 116.772 19.5902C116.309 19.5902 115.938 19.4629 115.656 19.2077C115.375 18.9532 115.235 18.5629 115.235 18.0366C115.235 17.0841 115.714 16.3199 116.672 15.7448C117.63 15.1704 118.828 14.8828 120.266 14.8828C123.57 14.8828 125.223 16.312 125.223 19.1711V26.2185C125.223 26.5808 125.3 26.8554 125.458 27.0438C125.615 27.2328 125.843 27.3277 126.139 27.3277C126.421 27.3277 126.644 27.2328 126.808 27.0438C126.974 26.8554 127.056 26.5973 127.056 26.2681H127.577C127.577 26.8425 127.391 27.2947 127.019 27.6239C126.647 27.9517 126.13 28.1164 125.471 28.1164C124.711 28.1164 124.071 27.8985 123.551 27.4629C123.03 27.0279 122.761 26.35 122.745 25.4298C122.349 26.2681 121.742 26.9251 120.924 27.4011C120.107 27.877 119.202 28.1149 118.211 28.1149C117.151 28.1178 116.284 27.8432 115.607 27.2925ZM120.947 26.6405C121.418 26.3781 121.818 25.9956 122.149 25.4945C122.479 24.9934 122.677 24.3903 122.744 23.6843V21.1214H121.083C119.729 21.1214 118.716 21.4219 118.048 22.0208C117.378 22.6204 117.044 23.4629 117.044 24.5463C117.044 25.45 117.258 26.0905 117.689 26.4679C118.118 26.8468 118.745 27.0351 119.572 27.0351C120.017 27.0337 120.476 26.9021 120.947 26.6405Z" fill="#58574B"></path><path d="M128.17 27.3778L129.905 27.1305V15.8452L128.17 15.5986V15.1062H132.383V17.0041C133.424 15.5907 134.598 14.8848 135.903 14.8848C136.531 14.8848 137.085 15.0444 137.563 15.3643C138.042 15.6849 138.282 16.1407 138.282 16.7316C138.282 17.1594 138.142 17.5167 137.86 17.8042C137.579 18.0911 137.207 18.2356 136.745 18.2356C136.216 18.2356 135.786 18.0307 135.456 17.6195C135.639 17.3887 135.729 17.1428 135.729 16.8797C135.729 16.6001 135.634 16.3743 135.443 16.2025C135.254 16.03 135.002 15.9444 134.687 15.9444C134.339 15.9444 133.984 16.104 133.621 16.4239C133.258 16.7446 132.845 17.242 132.383 17.9157V27.1305L134.365 27.3778V27.8703H128.169V27.3778H128.17Z" fill="#58574B"></path><path d="M141.008 27.2567C140.099 26.6815 139.646 25.9346 139.646 25.0144C139.646 24.5385 139.773 24.1654 140.03 23.8929C140.286 23.6219 140.628 23.4867 141.059 23.4867C141.388 23.4867 141.67 23.5687 141.902 23.7333C142.134 23.8979 142.298 24.1273 142.397 24.4235C142.033 24.8167 141.852 25.2358 141.852 25.6801C141.852 26.1891 142.084 26.6341 142.546 27.0108C143.008 27.3897 143.628 27.578 144.405 27.578C145.445 27.578 146.297 27.3436 146.958 26.8756C147.619 26.4069 147.95 25.7793 147.95 24.9907C147.95 24.5306 147.81 24.1855 147.528 23.9562C147.247 23.7254 146.702 23.4637 145.892 23.1675L142.15 21.8131C140.68 21.2876 139.944 20.3099 139.944 18.8807C139.944 17.7147 140.349 16.7578 141.159 16.0109C141.969 15.2639 143.083 14.8887 144.505 14.8887C145.678 14.8887 146.682 15.1561 147.517 15.6902C148.351 16.2244 148.768 16.9843 148.768 17.9692C148.768 18.3631 148.661 18.6794 148.447 18.9174C148.231 19.1553 147.951 19.2747 147.603 19.2747C147.256 19.2747 146.972 19.1805 146.749 18.9907C146.526 18.8024 146.414 18.5443 146.414 18.215C146.628 18.0518 146.777 17.8743 146.86 17.6859C146.943 17.4968 146.983 17.2718 146.983 17.008C146.983 16.5486 146.781 16.1705 146.376 15.875C145.971 15.5788 145.347 15.4322 144.505 15.4322C143.779 15.4322 143.155 15.5436 142.634 15.765C142.113 15.9864 141.721 16.279 141.458 16.6399C141.192 17.0022 141.061 17.3718 141.061 17.7492C141.061 18.1424 141.205 18.4551 141.495 18.6859C141.784 18.916 142.317 19.1704 143.093 19.4494L146.563 20.6809C147.373 20.9756 147.985 21.3875 148.397 21.9131C148.81 22.4379 149.017 23.1208 149.017 23.9576C149.017 25.156 148.636 26.1503 147.878 26.9389C147.117 27.7275 145.961 28.1215 144.408 28.1215C143.048 28.1186 141.916 27.8311 141.008 27.2567Z" fill="#58574B"></path><path d="M85.0502 57.4386V56.921L87.4781 55.9347L94.6406 37.2324H95.0368L101.802 56.55L104.082 56.9195V57.4379H96.796V56.9195L98.8285 56.5996L96.7223 50.7593H90.1303L88.1224 55.9339L90.3537 56.9195V57.4379H85.0502V57.4386ZM90.3277 50.2445H96.548L93.5734 41.571L90.3277 50.2445Z" fill="#58574B"></path><path d="M104.231 56.9472L105.966 56.7006V45.4153L104.231 45.1687V44.6762H108.444V47.3369C109.056 46.4498 109.774 45.7481 110.6 45.2305C111.427 44.7129 112.318 44.4541 113.277 44.4541C114.466 44.4541 115.403 44.7496 116.09 45.3419C116.774 45.9329 117.119 46.8114 117.119 47.9789V56.702L118.852 56.9486V57.4411H113.152V56.9486L114.639 56.702V48.0285C114.639 47.1737 114.466 46.513 114.119 46.0443C113.772 45.5763 113.234 45.3419 112.508 45.3419C111.748 45.3419 111.017 45.6166 110.315 46.1672C109.612 46.7179 108.989 47.3951 108.444 48.2003V56.702L109.931 56.9486V57.4411H104.231V56.9472Z" fill="#58574B"></path><path d="M119.968 56.9472L121.702 56.7006V45.4153L119.968 45.1687V44.6762H124.181V47.3369C124.792 46.4498 125.511 45.7481 126.337 45.2305C127.163 44.7129 128.055 44.4541 129.013 44.4541C130.203 44.4541 131.14 44.7496 131.826 45.3419C132.511 45.9329 132.855 46.8114 132.855 47.9789V56.702L134.589 56.9486V57.4411H128.889V56.9486L130.375 56.702V48.0285C130.375 47.1737 130.203 46.513 129.855 46.0443C129.509 45.5763 128.971 45.3419 128.244 45.3419C127.484 45.3419 126.753 45.6166 126.052 46.1672C125.349 46.7179 124.726 47.3951 124.181 48.2003V56.702L125.668 56.9486V57.4411H119.968V56.9472Z" fill="#58574B"></path><path d="M135.729 57.44V56.9475L137.463 56.7009V45.4401L135.729 45.1928V44.7003H139.942V56.7009L141.676 56.9475V57.44H135.729ZM137.166 41.338C136.835 41.0174 136.671 40.6277 136.671 40.1669C136.671 39.7075 136.832 39.3215 137.153 39.0088C137.476 38.6968 137.876 38.54 138.356 38.54C138.801 38.54 139.182 38.696 139.495 39.0088C139.808 39.3215 139.966 39.7075 139.966 40.1669C139.966 40.6263 139.81 41.0167 139.495 41.338C139.181 41.6579 138.801 41.8175 138.356 41.8175C137.893 41.8189 137.498 41.6579 137.166 41.338Z" fill="#58574B"></path><path d="M148.765 57.9323L143.461 45.4155L141.851 45.1682V44.6758H148.021V45.1682L146.237 45.4889L149.979 54.7534L153.326 45.8088L151.144 45.1927V44.7002H155.581V45.1927L154.02 45.7836L149.46 57.9309H148.765V57.9323Z" fill="#58574B"></path><path d="M159.124 56.8616C158.132 56.3102 157.348 55.5345 156.77 54.5331C156.192 53.5317 155.903 52.3735 155.903 51.0594C155.903 49.7452 156.188 48.5914 156.757 47.5964C157.328 46.6029 158.096 45.8308 159.062 45.2801C160.028 44.7294 161.107 44.4541 162.296 44.4541C163.336 44.4541 164.27 44.6849 165.096 45.1442C165.922 45.6036 166.567 46.2406 167.029 47.0536C167.491 47.866 167.731 48.7991 167.747 49.8502H158.628V52.2894C158.628 53.7358 158.954 54.9055 159.607 55.8005C160.259 56.6956 161.205 57.1434 162.445 57.1434C163.585 57.1434 164.593 56.8235 165.469 56.183C166.345 55.5424 166.881 54.7128 167.08 53.6934H167.651C167.418 54.9091 166.833 55.8789 165.891 56.6014C164.949 57.3246 163.8 57.6855 162.446 57.6855C161.221 57.6869 160.115 57.4123 159.124 56.8616ZM165.022 49.2348C165.022 47.8056 164.8 46.7424 164.353 46.0443C163.908 45.347 163.214 44.9976 162.272 44.9976C161.166 44.9976 160.306 45.3836 159.695 46.1557C159.084 46.9278 158.736 47.9552 158.654 49.2362H165.022V49.2348Z" fill="#58574B"></path><path d="M169.409 56.9472L171.143 56.7006V45.4153L169.409 45.1687V44.6762H173.622V46.5734C174.663 45.1608 175.836 44.4541 177.141 44.4541C177.77 44.4541 178.323 44.6137 178.802 44.9343C179.281 45.2542 179.52 45.71 179.52 46.3017C179.52 46.7294 179.38 47.0867 179.099 47.3736C178.817 47.6611 178.446 47.8056 177.983 47.8056C177.455 47.8056 177.024 47.6007 176.694 47.1888C176.877 46.9588 176.967 46.7129 176.967 46.4498C176.967 46.1701 176.872 45.9444 176.682 45.7726C176.492 45.6 176.24 45.5138 175.926 45.5138C175.578 45.5138 175.223 45.6734 174.86 45.994C174.496 46.3139 174.083 46.8114 173.621 47.485V56.7006L175.603 56.9472V57.4396H169.408V56.9472H169.409Z" fill="#58574B"></path><path d="M182.245 56.8243C181.336 56.2499 180.882 55.5029 180.882 54.582C180.882 54.1061 181.009 53.733 181.267 53.4606C181.523 53.1895 181.866 53.0544 182.296 53.0544C182.625 53.0544 182.907 53.1363 183.139 53.3009C183.37 53.4656 183.535 53.6949 183.634 53.9911C183.27 54.3851 183.089 54.8042 183.089 55.2485C183.089 55.7574 183.321 56.2017 183.783 56.5791C184.245 56.9573 184.865 57.1464 185.642 57.1464C186.682 57.1464 187.534 56.912 188.195 56.4433C188.856 55.9753 189.187 55.347 189.187 54.5583C189.187 54.0989 189.047 53.7531 188.766 53.5238C188.484 53.2938 187.939 53.0314 187.129 52.7352L183.387 51.3808C181.916 50.8552 181.182 49.8775 181.182 48.4484C181.182 47.2823 181.586 46.3254 182.396 45.5785C183.206 44.8316 184.32 44.457 185.742 44.457C186.915 44.457 187.919 44.7237 188.754 45.2579C189.588 45.7927 190.006 46.5519 190.006 47.5368C190.006 47.9308 189.897 48.2471 189.684 48.485C189.468 48.723 189.189 48.8423 188.841 48.8423C188.493 48.8423 188.209 48.7489 187.986 48.5584C187.763 48.37 187.651 48.1119 187.651 47.7827C187.865 47.6195 188.014 47.4419 188.097 47.2536C188.18 47.0645 188.22 46.8395 188.22 46.5764C188.22 46.1163 188.018 45.7381 187.613 45.4434C187.208 45.1472 186.584 44.9998 185.742 44.9998C185.016 44.9998 184.392 45.1112 183.871 45.3326C183.35 45.5548 182.958 45.8467 182.694 46.2075C182.43 46.5699 182.299 46.9394 182.299 47.3168C182.299 47.7108 182.443 48.0235 182.732 48.2535C183.022 48.4843 183.554 48.7388 184.33 49.017L187.8 50.2485C188.61 50.544 189.221 50.9552 189.634 51.4807C190.047 52.0062 190.254 52.6885 190.254 53.5253C190.254 54.7244 189.873 55.7179 189.114 56.5065C188.354 57.2952 187.198 57.6891 185.645 57.6891C184.286 57.6863 183.154 57.3994 182.245 56.8243Z" fill="#58574B"></path><path d="M193.645 56.8608C192.967 56.3102 192.629 55.4935 192.629 54.4087C192.629 52.8638 193.28 51.7674 194.587 51.119C195.892 50.4713 197.404 50.1456 199.122 50.1456H200.783V48.2477C200.783 47.3936 200.687 46.7322 200.498 46.2642C200.308 45.7955 200.015 45.4677 199.618 45.2779C199.222 45.0896 198.684 44.9947 198.007 44.9947C197.23 44.9947 196.653 45.1463 196.273 45.4504C195.892 45.7538 195.702 46.16 195.702 46.669C195.702 47.1456 195.934 47.4583 196.397 47.6064C196.397 48.0176 196.24 48.3785 195.925 48.6898C195.611 49.0025 195.239 49.1585 194.809 49.1585C194.347 49.1585 193.976 49.032 193.695 48.7761C193.413 48.5216 193.273 48.1312 193.273 47.605C193.273 46.6532 193.752 45.8883 194.71 45.3131C195.668 44.7387 196.867 44.4512 198.304 44.4512C201.608 44.4512 203.26 45.8803 203.26 48.7394V55.7868C203.26 56.1491 203.339 56.4238 203.496 56.6128C203.653 56.8012 203.881 56.8961 204.177 56.8961C204.459 56.8961 204.682 56.8012 204.846 56.6128C205.012 56.4238 205.094 56.1657 205.094 55.8364H205.615C205.615 56.4115 205.429 56.863 205.057 57.1923C204.686 57.5201 204.169 57.6847 203.509 57.6847C202.749 57.6847 202.109 57.4669 201.589 57.0312C201.068 56.5963 200.799 55.9191 200.783 54.9982C200.387 55.8364 199.78 56.4935 198.962 56.9694C198.145 57.4453 197.24 57.6833 196.248 57.6833C195.189 57.6862 194.322 57.4115 193.645 56.8608ZM198.987 56.2074C199.457 55.945 199.857 55.5632 200.188 55.0614C200.518 54.5604 200.717 53.9579 200.783 53.2512V50.6891H199.122C197.767 50.6891 196.755 50.9889 196.087 51.5877C195.417 52.188 195.084 53.0298 195.084 54.1132C195.084 55.0176 195.298 55.6581 195.728 56.0355C196.157 56.4137 196.785 56.6021 197.611 56.6021C198.057 56.6021 198.515 56.4705 198.987 56.2074Z" fill="#58574B"></path><path d="M206.21 56.9472L207.944 56.7006V45.4153L206.21 45.1687V44.6762H210.423V46.5734C211.463 45.1608 212.638 44.4541 213.943 44.4541C214.57 44.4541 215.124 44.6137 215.603 44.9343C216.082 45.2542 216.321 45.71 216.321 46.3017C216.321 46.7294 216.181 47.0867 215.899 47.3736C215.618 47.6611 215.246 47.8056 214.784 47.8056C214.256 47.8056 213.826 47.6007 213.496 47.1888C213.677 46.9588 213.768 46.7129 213.768 46.4498C213.768 46.1701 213.672 45.9444 213.483 45.7726C213.293 45.6 213.041 45.5138 212.727 45.5138C212.379 45.5138 212.024 45.6734 211.661 45.994C211.296 46.3139 210.884 46.8114 210.422 47.485V56.7006L212.404 56.9472V57.4396H206.208V56.9472H206.21Z" fill="#58574B"></path><path d="M217.336 63.9955C216.807 63.5678 216.543 62.9926 216.543 62.2709C216.543 61.7784 216.687 61.3802 216.977 61.0761C217.266 60.772 217.625 60.6203 218.055 60.6203C218.368 60.6203 218.65 60.6864 218.898 60.818C219.146 60.9495 219.344 61.1458 219.493 61.4089C219.245 61.7533 219.121 62.1156 219.121 62.493C219.121 62.8208 219.228 63.0926 219.443 63.3054C219.657 63.5182 219.931 63.626 220.261 63.626C220.657 63.626 221 63.4944 221.29 63.2321C221.579 62.9689 221.838 62.5088 222.07 61.8518L223.557 57.6138L217.808 45.4407L216.148 45.1941V44.7016H222.318V45.1941L220.584 45.4888L224.723 54.2853L227.671 45.8095L225.54 45.1927V44.7002H230V45.1927L228.314 45.8095L222.762 61.851C222.415 62.8194 221.999 63.5268 221.511 63.9704C221.023 64.4132 220.326 64.6346 219.416 64.6346C218.558 64.6361 217.865 64.4218 217.336 63.9955Z" fill="#58574B"></path></g><defs><clipPath id="clip0_4265_17448"><rect width="230" height="73" fill="white"></rect></clipPath></defs></svg>