<svg xmlns="http://www.w3.org/2000/svg" width="180" height="41" viewBox="0 0 180 41" fill="none"><path d="M42.0581 6.44578V13.2222C42.0581 16.087 42.6032 16.5002 43.8369 16.6104H44.0664C44.2385 16.638 44.2672 16.7482 44.2672 16.8859V17.0236C44.2672 17.1889 44.2098 17.244 43.9803 17.244H39.4473C39.1891 17.244 39.103 17.1889 39.103 16.9961V16.8583C39.103 16.6931 39.1891 16.638 39.4186 16.6104H39.6481C40.681 16.5278 41.3122 15.8942 41.3122 13.1947V7.24463C41.3122 5.28883 40.5088 4.65526 39.3899 4.65526H39.2465C39.0457 4.65526 38.9883 4.57262 38.9883 4.43488V4.26961C38.9883 4.10433 39.0744 4.02169 39.3899 4.02169H41.9433C42.6032 4.02169 42.718 4.10433 43.0622 4.51752L50.9807 13.966V7.63028C50.9807 5.37147 50.3782 4.76544 49.1732 4.65526H48.9437C48.7428 4.62771 48.6568 4.57262 48.6568 4.37979V4.24206C48.6568 4.04923 48.7428 3.99414 48.9724 3.99414H53.5054C53.7636 3.99414 53.8496 4.04923 53.8496 4.21451V4.35224C53.8496 4.51752 53.7636 4.57262 53.5914 4.60016H53.3619C52.2717 4.6828 51.7553 5.34392 51.7553 7.60273V17.0512C51.7553 17.244 51.6692 17.3542 51.4684 17.3542H51.411C51.2389 17.3542 51.1528 17.2715 51.0093 17.1063L42.0294 6.39068L42.0581 6.44578Z" fill="#58574B"></path><path d="M67.6787 16.6097H67.8222C67.9943 16.6097 68.0517 16.6923 68.0517 16.8852V17.0229C68.0517 17.2157 67.9943 17.2708 67.7935 17.2708H62.5719C62.3998 17.2708 62.3137 17.2157 62.3137 17.0504V16.9127C62.3137 16.7474 62.3998 16.6648 62.6006 16.6372H62.7728C64.0064 16.6097 64.2073 16.0312 63.8056 15.0395L62.7728 12.4777H57.8955L57.0061 14.7916C56.6044 15.8659 56.834 16.6097 58.0102 16.6372H58.1824C58.4119 16.6372 58.498 16.7199 58.498 16.9127V17.0504C58.498 17.2433 58.4406 17.2984 58.2398 17.2984H54.2232C53.9937 17.2984 53.8789 17.2433 53.8789 17.0504V16.9403C53.8789 16.7474 53.965 16.6648 54.1658 16.6648H54.2519C55.1413 16.6648 55.7724 15.8659 56.1741 14.7916L59.8751 5.45337L59.789 5.28809C59.7029 5.04017 59.703 4.92998 59.9038 4.79225C60.2194 4.62697 60.6784 4.21378 60.9079 3.96586C60.994 3.88322 61.0514 3.82812 61.1948 3.82812C61.3383 3.82812 61.3957 3.91076 61.4243 4.02095L65.986 15.2048C66.3303 16.0588 66.7893 16.6372 67.6214 16.6648M58.1824 11.8166H62.5719L60.3341 6.22467L58.1824 11.8166Z" fill="#58574B"></path><path d="M77.8087 5.09519C77.9809 4.84727 77.9235 4.70954 77.6653 4.70954H74.5094C72.9888 4.70954 72.0421 5.26047 71.1527 6.47251C70.9806 6.66534 70.4641 7.46419 70.2633 7.7672C70.1772 7.93248 70.0912 7.96002 69.919 7.93248L69.7756 7.87738C69.6034 7.84984 69.5748 7.73965 69.6034 7.57437L70.5789 4.59935C70.6937 4.18615 70.8371 4.10352 71.2961 4.10352H80.3048C80.4769 4.10352 80.5343 4.15861 80.5343 4.29634V4.37898C80.5343 4.51671 80.5343 4.6269 80.4195 4.76463L72.4724 16.3342C72.3003 16.5545 72.3864 16.7198 72.6446 16.7198H76.489C78.3825 16.7198 79.358 15.9485 80.0752 14.8742C80.2187 14.6538 80.6204 14.0478 80.7925 13.7172C80.8786 13.5244 80.9359 13.4969 81.1368 13.5244H81.2515C81.4237 13.6071 81.4524 13.6621 81.395 13.855L80.563 16.83C80.4482 17.2707 80.3621 17.3534 79.817 17.3534H69.9477C69.7756 17.3534 69.7182 17.2983 69.7182 17.1605V17.0779C69.7182 16.9126 69.7182 16.83 69.833 16.6923L77.8087 5.15028V5.09519Z" fill="#58574B"></path><path d="M96.1983 16.6097H96.3704C96.5425 16.6097 96.5999 16.6923 96.5999 16.8852V17.0229C96.5999 17.2157 96.5425 17.2708 96.3417 17.2708H91.1202C90.948 17.2708 90.862 17.2157 90.862 17.0504V16.9127C90.862 16.7474 90.948 16.6648 91.1488 16.6372H91.321C92.5546 16.6097 92.7555 16.0312 92.3538 15.0395L91.321 12.4777H86.4437L85.5543 14.7916C85.1527 15.8659 85.3822 16.6097 86.5585 16.6372H86.7019C86.9314 16.6372 87.0175 16.7199 87.0175 16.9127V17.0504C87.0175 17.2433 86.9601 17.2984 86.7593 17.2984H82.7427C82.5132 17.2984 82.3984 17.2433 82.3984 17.0504V16.9403C82.3984 16.7474 82.4845 16.6648 82.6853 16.6648H82.7714C83.6608 16.6648 84.292 15.8659 84.6936 14.7916L88.3946 5.45337L88.3085 5.28809C88.2225 5.04017 88.2225 4.92998 88.4233 4.79225C88.7389 4.62697 89.1979 4.21378 89.4275 3.96586C89.5135 3.88322 89.5709 3.82812 89.7144 3.82812C89.8578 3.82812 89.9152 3.91076 89.9439 4.02095L94.5056 15.2048C94.8498 16.0588 95.3089 16.6372 96.1409 16.6648M86.7019 11.8166H91.0915L88.8537 6.22467L86.7019 11.8166Z" fill="#58574B"></path><path d="M102.077 10.9905V15.095C102.077 16.2795 102.421 16.6376 103.626 16.6376H103.798C104.027 16.6376 104.113 16.7202 104.113 16.913V17.0508C104.113 17.216 104.056 17.2711 103.769 17.2711H98.3468C98.1173 17.2711 98.0312 17.216 98.0312 17.0232V16.8579C98.0312 16.6927 98.1173 16.6376 98.3755 16.6376H98.5477C99.7239 16.6376 100.068 16.307 100.068 15.095V6.25255C100.068 5.0405 99.7239 4.70994 98.4903 4.70994H98.3755C98.146 4.70994 98.0599 4.6273 98.0599 4.43448V4.2692C98.0599 4.10392 98.1173 4.04883 98.4042 4.04883H104.486C107.126 4.04883 108.962 5.15069 108.962 7.38195C108.962 9.61322 107.7 10.357 105.577 10.6875C105.921 10.9079 106.179 11.1558 106.437 11.5415L109.163 15.3153C109.765 16.1693 110.282 16.6376 111.372 16.6376C112.462 16.6376 111.659 16.7202 111.659 16.8855V17.0508C111.659 17.216 111.573 17.2711 111.372 17.2711H108.733C108.187 17.2711 108.044 17.1885 107.814 16.8304L104.286 11.8169C103.827 11.1834 103.511 10.963 102.736 10.963H102.163L102.077 10.9905ZM102.077 10.3294H103.626C105.691 10.3294 106.839 9.17247 106.839 7.54723C106.839 5.92199 105.95 4.6824 103.827 4.6824H102.622C102.163 4.6824 102.077 4.79258 102.077 5.20578V10.3294Z" fill="#58574B"></path><path d="M113.037 17.023V16.8577C113.037 16.6925 113.094 16.6374 113.381 16.6374H113.496C114.701 16.6374 115.045 16.2793 115.045 15.0948V6.25234C115.045 5.0403 114.701 4.70974 113.438 4.70974H113.352C113.123 4.70974 113.037 4.6271 113.037 4.43428V4.29654C113.037 4.13126 113.094 4.07617 113.381 4.07617H119.348C122.246 4.07617 123.566 5.34331 123.566 7.10628C123.566 8.86926 122.475 9.77829 120.84 10.1364C122.762 10.3568 124.254 11.5413 124.254 13.3869C124.254 15.2325 122.59 17.2709 119.434 17.2709H113.323C113.094 17.2709 113.008 17.2158 113.008 17.023M117.11 10.0538H118.631C120.582 9.99867 121.471 8.70398 121.471 7.27156C121.471 5.83915 120.582 4.70974 118.774 4.70974H117.627C117.225 4.70974 117.11 4.79238 117.11 5.20558V10.0813V10.0538ZM117.11 10.6873V14.6816C117.11 16.114 117.598 16.6098 118.947 16.6098H119.463C121.213 16.6098 122.103 15.205 122.103 13.4695C122.103 11.7341 120.869 10.5771 118.488 10.6322H117.11C117.11 10.6598 117.11 10.6598 117.11 10.6598V10.6873Z" fill="#58574B"></path><path d="M138.886 16.6097H139.029C139.201 16.6097 139.259 16.6923 139.259 16.8852V17.0229C139.259 17.2157 139.201 17.2708 139.001 17.2708H133.779C133.607 17.2708 133.521 17.2157 133.521 17.0504V16.9127C133.521 16.7474 133.607 16.6648 133.808 16.6372H133.98C135.213 16.6097 135.414 16.0312 135.013 15.0395L133.98 12.4777H129.103L128.213 14.7916C127.811 15.8659 128.041 16.6097 129.217 16.6372H129.389C129.619 16.6372 129.705 16.7199 129.705 16.9127V17.0504C129.705 17.2433 129.648 17.2984 129.447 17.2984H125.43C125.201 17.2984 125.086 17.2433 125.086 17.0504V16.9403C125.086 16.7474 125.172 16.6648 125.373 16.6648H125.459C126.348 16.6648 126.979 15.8659 127.381 14.7916L131.082 5.45337L130.996 5.28809C130.91 5.04017 130.91 4.92998 131.111 4.79225C131.426 4.62697 131.885 4.21378 132.115 3.96586C132.201 3.88322 132.258 3.82812 132.402 3.82812C132.545 3.82812 132.603 3.91076 132.631 4.02095L137.193 15.2048C137.537 16.0588 137.996 16.6372 138.828 16.6648M129.389 11.8166H133.779L131.541 6.22467L129.389 11.8166Z" fill="#58574B"></path><path d="M140.579 6.11481C139.976 5.12314 139.603 4.70994 138.771 4.65485C138.542 4.65485 138.484 4.57221 138.484 4.40693V4.2692C138.484 4.10392 138.57 4.04883 138.771 4.04883H143.677C143.849 4.04883 143.935 4.10392 143.935 4.2692V4.40693C143.935 4.59976 143.878 4.6824 143.649 4.6824H143.476C142.587 4.70994 142.444 5.31597 142.817 5.94953L145.8 10.7977L148.468 6.55556C149.1 5.59143 148.927 4.73749 147.981 4.6824H147.751C147.522 4.6824 147.464 4.6273 147.464 4.43448V4.29675C147.464 4.13147 147.55 4.07637 147.751 4.07637H151.653C151.94 4.07637 151.997 4.13147 151.997 4.32429V4.43448C151.997 4.6273 151.911 4.6824 151.71 4.70994C150.735 4.73749 150.104 5.4537 149.272 6.72084L146.116 11.5415V15.1225C146.116 16.307 146.46 16.6651 147.665 16.6651H147.809C148.038 16.6651 148.153 16.7478 148.153 16.9406V17.0783C148.153 17.2436 148.067 17.2987 147.809 17.2987H142.358C142.128 17.2987 142.042 17.2436 142.042 17.0508V16.8855C142.042 16.7202 142.128 16.6651 142.386 16.6651H142.53C143.706 16.6651 144.05 16.3346 144.05 15.1225V11.7343L140.579 6.16991V6.11481Z" fill="#58574B"></path><path d="M157.965 4.6826C157.564 4.6826 157.478 4.79279 157.478 5.12334V10.0817H159.515C160.72 10.0817 161.236 9.39305 161.265 8.31874V8.15346C161.265 7.96063 161.351 7.90554 161.552 7.90554H161.724C161.896 7.90554 161.953 7.98818 161.953 8.20855V12.4507C161.953 12.6711 161.896 12.7262 161.724 12.7262H161.58C161.408 12.7262 161.293 12.6435 161.293 12.4232V12.2579C161.207 11.2111 160.72 10.7428 159.457 10.7428H157.478V15.1503C157.478 16.2246 157.736 16.6102 158.797 16.6102H160.289C162.211 16.6102 163.244 16.0593 164.019 14.9299C164.162 14.7095 164.593 13.9382 164.708 13.6352C164.794 13.4424 164.851 13.4148 165.052 13.4424L165.195 13.4975C165.339 13.525 165.367 13.6352 165.339 13.828L164.765 16.748C164.679 17.1336 164.535 17.2438 164.105 17.2438H153.691C153.461 17.2438 153.375 17.1887 153.375 16.9959V16.8306C153.375 16.6653 153.432 16.6102 153.719 16.6102H153.891C155.039 16.6102 155.383 16.2521 155.383 15.0676V6.2252C155.383 5.01316 155.039 4.6826 153.805 4.6826H153.691C153.461 4.6826 153.375 4.59996 153.375 4.40714V4.24186C153.375 4.07658 153.432 4.02148 153.719 4.02148H163.732C164.076 4.02148 164.22 4.07658 164.277 4.43468L164.65 7.0516C164.65 7.18933 164.65 7.27197 164.478 7.32706H164.363C164.191 7.38215 164.134 7.32706 164.019 7.16178C163.904 6.91387 163.589 6.36294 163.474 6.2252C162.699 5.12334 161.896 4.6826 159.83 4.6826H157.937H157.965Z" fill="#58574B"></path><path d="M173.545 17.161C173.459 17.3813 173.401 17.464 173.201 17.464H173.143C172.942 17.464 172.856 17.3813 172.799 17.161L168.438 6.50046C167.979 5.42615 167.635 4.79258 166.774 4.6824H166.602C166.401 4.65485 166.344 4.57221 166.344 4.40693V4.2692C166.344 4.10392 166.43 4.04883 166.602 4.04883H171.737C171.938 4.04883 172.024 4.10392 172.024 4.2692V4.40693C172.024 4.59976 171.967 4.65485 171.737 4.65485H171.565C170.274 4.70994 170.217 5.59143 170.676 6.6382L173.889 14.6267L176.787 6.80348C177.217 5.64652 176.93 4.70994 175.926 4.65485H175.725C175.525 4.65485 175.467 4.57221 175.467 4.40693V4.2692C175.467 4.10392 175.553 4.04883 175.754 4.04883H179.627C179.914 4.04883 180 4.10392 180 4.29675V4.40693C180 4.59976 179.914 4.6824 179.656 4.6824H179.541C178.594 4.73749 178.135 5.61898 177.705 6.69329L173.602 17.161H173.545Z" fill="#58574B"></path><path d="M46.4229 36.4157C43.267 36.4157 40.857 35.1762 40.857 31.7604V25.1217C40.857 23.9647 40.5414 23.5791 39.4799 23.5791H39.3078C39.0783 23.5791 38.9922 23.524 38.9922 23.3312V23.1934C38.9922 23.0006 39.0496 22.9455 39.3365 22.9455H44.558C44.7875 22.9455 44.8736 23.0006 44.8736 23.1934V23.3587C44.8736 23.524 44.8162 23.5791 44.5867 23.5791H44.472C43.3244 23.5791 42.9801 23.9096 42.9801 25.1217V31.7053C42.9801 34.1018 44.2424 35.5618 46.6237 35.5618C49.005 35.5618 50.7264 34.0192 50.7264 30.8238V25.7553C50.7264 24.3228 50.3247 23.5515 49.1197 23.5515H49.0336C48.8041 23.5515 48.7181 23.4689 48.7181 23.3036V23.1659C48.7181 23.0006 48.8041 22.918 49.005 22.918H53.2224C53.4519 22.918 53.5666 22.9731 53.5666 23.1383V23.3312C53.5666 23.4689 53.538 23.5515 53.3084 23.5515H53.1937C52.0461 23.5515 51.6157 24.1851 51.6157 25.8103V30.6861C51.6157 34.3498 50.0091 36.4157 46.3942 36.4157" fill="#58574B"></path><path d="M57.9526 25.3423V32.1187C57.9526 34.956 58.4977 35.3967 59.7314 35.5069H59.9609C60.1331 35.5345 60.1617 35.6446 60.1617 35.7824V35.9201C60.1617 36.0854 60.1044 36.1405 59.8748 36.1405H55.3418C55.0836 36.1405 54.9976 36.0854 54.9976 35.8926V35.7548C54.9976 35.5896 55.0836 35.5345 55.3132 35.5069H55.5427C56.5755 35.4243 57.2067 34.7907 57.2067 32.0912V26.1411C57.2067 24.1853 56.4321 23.5517 55.2845 23.5517H55.141C54.9402 23.5517 54.8828 23.4691 54.8828 23.3314V23.1661C54.8828 23.0008 54.9689 22.9182 55.2845 22.9182H57.8379C58.4977 22.9182 58.6125 23.0008 58.9568 23.414L66.8752 32.8625V26.5268C66.8752 24.268 66.2727 23.6619 65.0677 23.5517H64.8382C64.6374 23.5242 64.5513 23.4691 64.5513 23.2763V23.1385C64.5513 22.9457 64.6374 22.8906 64.8669 22.8906H69.3999C69.6581 22.8906 69.7442 22.9457 69.7442 23.111V23.2763C69.7442 23.4416 69.6581 23.4966 69.486 23.5242H69.2564C68.1662 23.6068 67.6498 24.268 67.6498 26.5268V35.9752C67.6498 36.168 67.5637 36.2782 67.3629 36.2782H67.3055C67.1334 36.2782 67.0473 36.1956 66.9039 36.0303L57.9239 25.3147L57.9526 25.3423Z" fill="#58574B"></path><path d="M73.2726 25.1217C73.2726 23.8821 72.9283 23.5791 71.6946 23.5791H71.6086C71.379 23.5791 71.293 23.4964 71.293 23.3036V23.1383C71.293 22.9731 71.3504 22.918 71.6373 22.918H77.0883C77.3178 22.918 77.3752 22.9731 77.3752 23.1659V23.3312C77.3752 23.4964 77.3178 23.5515 77.0309 23.5515H76.9162C75.7112 23.5515 75.3669 23.9096 75.3669 25.0941V33.9366C75.3669 35.1211 75.7112 35.4792 76.9162 35.4792H77.0596C77.2892 35.4792 77.3752 35.5618 77.3752 35.7546V35.8924C77.3752 36.0576 77.3178 36.1127 77.0309 36.1127H71.6086C71.379 36.1127 71.293 36.0576 71.293 35.8648V35.6995C71.293 35.5343 71.379 35.4792 71.6373 35.4792H71.7807C72.957 35.4792 73.3013 35.1486 73.3013 33.9366V25.0941L73.2726 25.1217Z" fill="#58574B"></path><path d="M85.9824 36.0301C85.8963 36.2505 85.839 36.3331 85.6381 36.3331H85.5807C85.3799 36.3331 85.2939 36.2505 85.2365 36.0301L80.8756 25.3696C80.4166 24.2953 80.0723 23.6617 79.2116 23.5515H79.0395C78.8386 23.524 78.7812 23.4414 78.7812 23.2761V23.1383C78.7812 23.0006 78.8673 22.918 79.0395 22.918H84.1749C84.3758 22.918 84.4618 22.9731 84.4618 23.1383V23.2761C84.4618 23.4689 84.4045 23.524 84.1749 23.524H84.0028C82.7404 23.5791 82.6544 24.4606 83.1134 25.5073L86.3267 33.4958L89.2244 25.6451C89.6547 24.4881 89.3678 23.5515 88.3637 23.524H88.1628C87.962 23.524 87.9046 23.4414 87.9046 23.2761V23.1383C87.9046 22.9731 87.9907 22.918 88.1915 22.918H92.0647C92.3516 22.918 92.4376 22.9731 92.4376 23.1659V23.2761C92.4376 23.4689 92.3516 23.5515 92.0934 23.5515H91.9786C91.0318 23.6066 90.5728 24.4881 90.1424 25.5624L86.0398 36.0301H85.9824Z" fill="#58574B"></path><path d="M98.3482 23.5808C97.9465 23.5808 97.8605 23.691 97.8605 24.0491V29.0075H99.8975C101.102 29.0075 101.619 28.3188 101.648 27.2445V27.0792C101.648 26.8864 101.734 26.8313 101.934 26.8313H102.107C102.279 26.8313 102.336 26.914 102.336 27.1343V31.3765C102.336 31.5969 102.279 31.652 102.107 31.652H101.963C101.791 31.652 101.676 31.5693 101.676 31.3489V31.1837C101.59 30.1369 101.102 29.6411 99.8401 29.6411H97.8605V34.0485C97.8605 35.1228 98.1187 35.5085 99.1802 35.5085H100.672C102.594 35.5085 103.627 34.93 104.402 33.8281C104.545 33.6078 104.976 32.8365 105.09 32.5334C105.176 32.3406 105.262 32.3131 105.435 32.3406L105.578 32.3957C105.721 32.4233 105.75 32.5334 105.721 32.7263L105.148 35.6462C105.062 36.0318 104.918 36.142 104.488 36.142H94.0734C93.8439 36.142 93.7578 36.0869 93.7578 35.8941V35.7288C93.7578 35.5636 93.8152 35.5085 94.1021 35.5085H94.2742C95.4218 35.5085 95.7661 35.1504 95.7661 33.9659V25.1234C95.7661 23.9114 95.4218 23.5808 94.1882 23.5808H94.0734C93.8439 23.5808 93.7578 23.4982 93.7578 23.3054V23.1676C93.7578 23.0024 93.8152 22.9473 94.1021 22.9473H104.115C104.459 22.9473 104.603 23.0024 104.66 23.3605L105.033 25.9774C105.033 26.1151 105.033 26.1978 104.889 26.2528H104.775C104.603 26.3079 104.545 26.2528 104.43 26.0876C104.316 25.8396 104 25.2887 103.885 25.151C103.111 24.0491 102.307 23.6084 100.242 23.6084H98.3482V23.5808Z" fill="#58574B"></path><path d="M111.375 29.8597V33.9641C111.375 35.1486 111.719 35.5067 112.924 35.5067H113.067C113.297 35.5067 113.383 35.5893 113.383 35.7822V35.9199C113.383 36.0852 113.326 36.1403 113.039 36.1403H107.616C107.387 36.1403 107.301 36.0852 107.301 35.8924V35.7271C107.301 35.5618 107.387 35.5067 107.645 35.5067H107.789C108.965 35.5067 109.309 35.1762 109.309 33.9641V25.1217C109.309 23.9096 108.965 23.5791 107.731 23.5791H107.616C107.387 23.5791 107.301 23.4964 107.301 23.3036V23.1383C107.301 22.9731 107.358 22.918 107.645 22.918H113.727C116.367 22.918 118.203 24.0198 118.203 26.2511C118.203 28.4824 116.941 29.2261 114.818 29.5567C115.162 29.777 115.391 30.025 115.678 30.4106L118.404 34.1845C119.006 35.0384 119.523 35.5067 120.613 35.5067C121.703 35.5067 120.9 35.5894 120.9 35.7546V35.9199C120.9 36.0852 120.814 36.1403 120.613 36.1403H117.973C117.428 36.1403 117.285 36.0576 117.055 35.6995L113.526 30.6861C113.067 30.0525 112.752 29.8321 111.977 29.8321H111.403L111.375 29.8597ZM111.375 29.2261H112.924C114.99 29.2261 116.137 28.0692 116.137 26.4439C116.137 24.8187 115.219 23.5791 113.125 23.5791H111.92C111.461 23.5791 111.375 23.6893 111.375 24.1025V29.2261Z" fill="#58574B"></path><path d="M124.399 25.4246C124.399 26.9121 125.748 27.463 127.699 28.3445C129.793 29.2535 131.658 30.135 131.658 32.6693C131.658 35.2036 129.764 36.4156 127.326 36.4156C124.887 36.4156 124.858 36.03 124.055 35.6168C123.854 35.5341 123.711 35.479 123.625 35.479C123.538 35.479 123.452 35.5617 123.395 35.6994L123.223 36.03C123.194 36.1402 123.137 36.1952 122.993 36.1952H122.764C122.649 36.1952 122.592 36.1126 122.592 35.9749V32.4765C122.563 32.2561 122.592 32.201 122.764 32.201H123.022C123.166 32.201 123.223 32.2286 123.252 32.3938C123.711 34.6802 125.203 35.727 127.211 35.727C129.219 35.727 129.879 34.7904 129.879 33.4131C129.879 32.0357 128.674 31.1542 126.838 30.3829C124.399 29.3362 122.735 28.5649 122.735 26.1408C122.735 23.7167 124.629 22.6699 126.953 22.6699C129.276 22.6699 129.018 22.9729 129.736 23.331C129.908 23.4137 130.022 23.4688 130.108 23.4688C130.223 23.4688 130.281 23.4137 130.338 23.3035L130.51 22.9729C130.539 22.8627 130.596 22.8352 130.711 22.8352H130.912C131.027 22.8352 131.084 22.8627 131.084 23.028L131.141 26.1408C131.141 26.3336 131.113 26.4162 130.912 26.4162H130.654C130.481 26.4162 130.424 26.3611 130.395 26.1959C129.965 24.3503 128.817 23.3586 126.924 23.3586C125.03 23.3586 124.37 24.1023 124.37 25.4246" fill="#58574B"></path><path d="M135.245 25.1217C135.245 23.8821 134.901 23.5791 133.667 23.5791H133.581C133.352 23.5791 133.266 23.4964 133.266 23.3036V23.1383C133.266 22.9731 133.323 22.918 133.61 22.918H139.061C139.291 22.918 139.348 22.9731 139.348 23.1659V23.3312C139.348 23.4964 139.29 23.5515 139.004 23.5515H138.889C137.684 23.5515 137.34 23.9096 137.34 25.0941V33.9366C137.34 35.1211 137.684 35.4792 138.86 35.4792H139.032C139.262 35.4792 139.348 35.5618 139.348 35.7546V35.8924C139.348 36.0576 139.29 36.1127 139.004 36.1127H133.581C133.352 36.1127 133.266 36.0576 133.266 35.8648V35.6995C133.266 35.5343 133.352 35.4792 133.61 35.4792H133.782C134.958 35.4792 135.303 35.1486 135.303 33.9366V25.0941L135.245 25.1217Z" fill="#58574B"></path><path d="M145.029 23.5807C143.738 23.5807 142.648 23.9664 141.959 25.0682C141.844 25.261 141.5 25.8395 141.357 26.0874C141.242 26.2803 141.156 26.3078 141.012 26.2527L140.869 26.1976C140.697 26.1425 140.668 26.0323 140.754 25.812L141.5 22.9747C141.557 22.8094 141.615 22.6992 141.787 22.6992C142.074 22.6992 142.762 22.9471 143.623 22.9471H152.259C153.263 22.9471 153.865 22.6992 154.181 22.6992C154.496 22.6992 154.41 22.7819 154.439 22.9471L155.099 25.7844C155.156 26.0048 155.128 26.0874 154.984 26.1425H154.841C154.669 26.2252 154.554 26.1701 154.439 25.9773C154.353 25.7844 154.095 25.3437 153.98 25.1784C153.263 24.0765 152.287 23.6083 150.795 23.6083H149.533C149.103 23.6083 149.017 23.746 149.017 24.1867V33.9933C149.017 35.1778 149.361 35.5359 150.537 35.5359H150.709C150.939 35.5359 151.025 35.6185 151.025 35.8113V35.9766C151.025 36.1419 150.968 36.197 150.681 36.197H145.258C145.029 36.197 144.943 36.1419 144.943 35.9491V35.7838C144.943 35.6185 145.029 35.5634 145.287 35.5634H145.43C146.607 35.5634 146.951 35.2329 146.951 34.0208V24.2143C146.951 23.746 146.865 23.6358 146.435 23.6358H145.086L145.029 23.5807Z" fill="#58574B"></path><path d="M158.309 25.0133C157.735 24.0216 157.334 23.6084 156.502 23.5533C156.272 23.5533 156.215 23.4706 156.215 23.3054V23.1676C156.215 23.0024 156.301 22.9473 156.502 22.9473H161.408C161.58 22.9473 161.666 23.0024 161.666 23.1676V23.3054C161.666 23.4982 161.609 23.5808 161.379 23.5808H161.207C160.318 23.6084 160.174 24.2144 160.547 24.848L163.531 29.6962L166.199 25.454C166.83 24.4899 166.658 23.6084 165.711 23.5808H165.482C165.252 23.5808 165.195 23.5257 165.195 23.3329V23.1952C165.195 23.0299 165.281 22.9748 165.482 22.9748H169.384C169.67 22.9748 169.728 23.0299 169.728 23.2227V23.3329C169.728 23.5257 169.642 23.5808 169.441 23.6084C168.465 23.6359 167.834 24.3521 167.002 25.6193L163.846 30.4399V34.021C163.846 35.2055 164.191 35.5636 165.396 35.5636H165.539C165.769 35.5636 165.883 35.6462 165.883 35.839V35.9768C165.883 36.142 165.797 36.1971 165.539 36.1971H160.088C159.858 36.1971 159.772 36.142 159.772 35.9492V35.7839C159.772 35.6186 159.858 35.5636 160.117 35.5636H160.26C161.436 35.5636 161.781 35.233 161.781 34.021V30.6327L158.309 25.0683V25.0133Z" fill="#58574B"></path><path d="M13.7737 32.5052C10.3309 32.5052 8.00704 29.4751 8.00704 26.7205C8.00704 23.4975 8.00704 23.6077 8.00704 20.3848H0.03125V24.8473C0.03125 26.8857 0.03125 28.814 0.174699 30.6321C0.404218 33.7173 1.81002 35.5629 3.5601 37.1606C5.94136 39.3367 9.95795 40.2458 14.0893 40.2458C18.2206 40.2458 22.2372 39.3367 24.6185 37.1606C26.3399 35.5629 27.7744 33.7448 28.0039 30.6321C28.1186 28.814 28.1473 26.9133 28.1473 24.8473V20.3848H20.1715C20.1715 23.6077 20.1715 23.4975 20.1715 26.7205C20.1715 28.4283 18.8805 32.5052 13.8598 32.5052" fill="#E0B154"></path><path d="M0 0H8.00448L20.0542 10.1371V0H28.0587V19.4203H20.0829L8.00448 9.86164V19.4203H0.02869V0H0Z" fill="#E0B154"></path><path d="M9.2645 28.0962C8.92022 27.1871 8.92022 26.1955 8.94891 25.0936C8.94891 24.0744 8.94891 14.5433 8.94891 11.8438C8.94891 11.8438 13.9123 15.6176 11.0146 20.3556C11.7892 19.8047 12.7073 19.419 14.1705 19.419C15.6337 19.419 17.2403 19.8598 18.3879 21.2371C19.0477 22.1186 19.392 22.8899 19.392 24.0468C19.392 25.7272 18.8469 26.9943 17.269 27.7381C16.1214 28.2064 15.3468 28.2615 14.2279 27.9309C13.195 27.5728 12.4204 26.6087 12.4204 25.2864C12.4204 24.0193 13.2524 23.0827 14.3713 23.0827C15.3754 23.1103 15.9779 23.7438 15.9492 24.7906C15.9492 25.4242 15.605 25.7823 15.2033 26.1679C16.437 26.2781 17.2403 25.0936 17.2116 24.1019C17.0968 22.2288 15.5476 21.6503 14.0557 21.7605C12.4778 21.8982 11.2154 23.0001 11.0433 24.6529C10.8998 26.0302 11.0433 26.9943 11.7605 28.0135C13.3958 30.1071 16.1214 30.1622 18.7035 28.7022C15.691 33.5504 10.1252 31.1814 9.23581 28.1237L9.2645 28.0962Z" fill="#E0B154"></path><path d="M19.0804 0V8.15376C19.0804 8.15376 15.4081 5.39911 16.4983 1.32223C15.7524 1.68034 12.7973 3.03011 9.125 0H19.0804Z" fill="#E0B154"></path></svg>