<?xml version="1.0" encoding="UTF-8"?>
<svg id="Ebene_1" xmlns="http://www.w3.org/2000/svg" baseProfile="tiny" version="1.2" width="1552" height="703" viewBox="0 0 1551.79748 703.276">
  <!-- Generator: Adobe Illustrator 30.0.0, SVG Export Plug-In . SVG Version: 2.1.1 Build 123)  -->
  <g>
    <path d="M917.41367,256.71654h16.41543l44.09121-206.28821,89.14551,206.28821h11.26455l51.49151-241.36367h-16.09872l-44.08508,206.28826L980.49878,15.35286h-11.58809l-51.49702,241.36367ZM779.36132,244.16548c-38.93428,0-57.60533-25.10282-57.60533-64.04261,0-11.90542,1.60932-25.10282,3.85882-38.9404l1.93216-10.30166c10.61894-55.99045,35.72115-102.97684,97.1853-102.97684,38.94653,0,59.86095,25.0967,59.86095,64.04261,0,12.55172-.95689,25.41954-3.54148,38.93423l-1.92604,10.30166c-10.61894,55.99662-37.97731,102.98301-99.76437,102.98301M777.1057,259.29505c74.02138,0,106.20166-53.10639,118.42999-118.11258l1.93209-10.30166c2.2495-13.51469,3.54148-26.38251,3.54148-38.93423,0-48.91856-24.77937-79.16606-73.70405-79.16606-70.47377,0-103.93991,52.13107-116.16817,118.10028l-1.61545,10.30166c-2.57234,13.83758-4.18166,26.71209-4.18166,38.9404-.31733,46.34622,21.24401,79.17218,71.76576,79.17218M592.06145,259.29505h6.43728c18.66493,0,38.62246-5.15693,52.45453-9.98494l3.8644-15.1234h-2.57241c-8.69842,3.54148-33.78899,9.97877-50.20503,9.97877h-9.97877c-42.79922,0-65.32909-20.27486-65.32909-62.7568,0-9.00957,1.92665-20.59153,3.54148-30.24745l6.43115-30.25301c11.91154-57.92884,45.3832-93.00425,104.26949-93.00425,12.55723,0,34.12408,2.57234,42.81024,6.43115l-8.68616,43.77388h14.8006l11.58196-52.77737c-15.12344-8.69229-36.68478-12.5511-57.9343-12.5511-67.90143,0-108.12769,39.26325-123.25169,108.12769l-6.11382,28.96715c-1.92672,8.36945-3.85888,21.23788-3.85888,31.53331,0,52.77803,28.96102,77.88637,81.73901,77.88637M427.29144,256.71654h16.41605L495.19287,15.35286h-16.40992l-51.49151,241.36367ZM320.45028,256.71654h74.33804l3.87107-15.1234h-75.6307c-19.95196,0-32.50925-6.11444-32.50925-25.10282,0-3.85882.6463-9.97264,1.60932-13.83758L332.03831,15.35286h-16.41605l-39.58058,186.01401c-1.28581,5.46752-1.92604,11.26463-1.92604,17.69578,0,26.38869,19.94528,37.65388,46.33464,37.65388M186.24444,256.71654h16.41605L254.14586,15.35286h-16.40986l-51.49156,241.36367ZM59.45181,259.29505h3.85269c50.21116,0,90.43742-23.81635,90.43742-70.48607,0-36.36127-19.31184-48.58954-46.34683-62.74996l-24.13306-12.5511c-14.8006-8.0466-26.38317-18.989-26.38317-36.68478,0-36.36806,28.96164-48.91917,65.64029-48.91917h3.54148c16.41605,0,35.40443,3.85882,49.24814,9.97325h2.2495l3.86433-15.12406c-16.41605-6.11382-37.65393-9.97264-54.06936-9.97264h-3.86494c-43.76218,0-82.70203,20.26874-82.70203,64.04261,0,26.38869,16.73282,41.83559,41.5128,54.05767l22.52369,11.59426c21.23788,10.61276,32.50925,22.52374,32.50925,46.33391,0,37.6601-30.8938,55.3565-70.16317,55.3565h-3.86433c-16.40992,0-37.31883-6.43728-48.91299-11.26524h-2.57239l-3.86494,16.40987c16.0932,6.11995,35.08159,9.98494,51.49763,9.98494" fill="#005d56"/>
    <path d="M1008.51455,528.16057h53.90273l29.1406-141.95895,57.66529,141.95895h50.13948l50.13887-235.03426h-53.90212l-29.14664,141.96446-57.65924-141.96446h-50.13948l-50.13948,235.03426ZM929.23455,420.36184c-8.14768,34.78202-23.50507,64.86841-64.86779,64.86841-29.46398,0-40.42414-10.97241-40.42414-42.61972,0-7.51976.93361-18.48543,2.50066-25.70073l3.45204-15.9793c8.14217-34.47077,23.1823-64.86775,64.86848-64.86775,28.20132,0,40.74078,10.9718,40.74078,42.61911,0,6.2633-1.25646,19.74189-2.82412,25.6946l-3.44592,15.98538ZM855.59054,530.66736c73.64401,0,114.69607-38.85652,128.48587-105.29193l5.00745-23.18842c1.56705-7.21468,3.76264-24.44427,3.76264-34.47143,0-53.90824-36.6664-77.08993-89.31268-77.08993-73.6385,0-114.696,38.54527-128.8032,105.29193l-4.69012,23.18781c-2.20171,10.9718-3.76876,22.87722-3.76876,34.47143,0,53.90212,35.41607,77.09054,89.3188,77.09054M535.85592,528.16057h45.84388l62.36162-74.58375,30.70818,74.58375h58.59837v-2.50679l-49.19416-120.02086,92.1306-110.00044v-2.50618h-55.15306l-55.7865,66.75279-27.26226-66.75279h-58.9157v2.50618l46.06503,112.19598-88.00231,105.35753-1.39368,14.97458Z" fill="#005d56"/>
    <path d="M1521.0233,311.83963v-9.42256h3.74487c2.51913,0,4.60068,1.44151,4.60068,4.39122,0,3.36812-2.08155,5.03135-4.60068,5.03135h-3.74487ZM1518.307,321.83003h2.7163v-7.69925h4.60681l4.16941,7.69925h2.93745v-.43066l-4.80958-8.33943c3.09857-1.43595,4.16328-3.52372,4.16328-6.25166,0-5.4565-4.32501-6.68294-8.71005-6.68294h-5.07362v21.70469ZM1525.19883,328.30346c-10.4271,0-17.32507-7.49035-17.32507-17.32577,0-9.78702,6.89796-17.33128,17.32507-17.33128,10.42168,0,17.32577,7.54426,17.32577,17.33128,0,9.83542-6.90409,17.32577-17.32577,17.32577M1525.19883,330.59461c11.49252,0,20.04146-8.1244,20.04146-19.61692,0-11.49803-8.54894-19.62243-20.04146-19.62243-11.49191,0-20.04085,8.1244-20.04085,19.62243,0,11.49252,8.54894,19.61692,20.04085,19.61692" fill="#005d56"/>
    <path d="M179.25703,530.66736h12.22213c58.9157,0,102.79127-22.2493,102.79127-80.84766,0-25.70073-14.41154-45.75995-39.17926-56.40891l-34.14803-14.72892c-8.78234-3.76325-18.49769-8.4595-18.49769-20.68163,0-17.24123,19.74189-21.93748,36.67253-21.93748h11.27688c13.47859,0,39.16774,4.69625,51.39594,9.71534h2.19559l8.77622-44.18677c-15.98538-7.20917-42.93644-10.96568-57.67144-10.96568h-8.45894c-53.8966,0-101.53542,20.99222-101.53542,74.57758,0,26.95723,16.60779,47.32153,37.92347,56.40891l30.70818,13.47864c13.16739,5.95271,21.9436,9.71534,21.9436,24.44427,0,19.74251-19.74802,25.69521-39.17319,25.69521h-10.02716c-18.17479,0-42.61911-5.95271-56.0977-12.22275h-2.50679l-8.46501,45.43711c15.97931,7.21529,41.36878,12.22275,59.85483,12.22275" fill="#005d56"/>
    <path d="M448.89995,336.06275c4.70238,24.12694,7.83715,55.78037,9.71596,89.31268h-56.71399c16.28991-35.09935,33.21436-68.00312,46.99803-89.31268M304.74603,528.16057h52.65179c6.89184-16.91838,15.04013-36.97822,24.12755-57.65924h78.97492c.62792,20.0531.93913,39.7956.93913,57.65924h58.59843c0-71.13232-12.2222-170.16034-27.89025-235.03426h-66.11874c-30.70818,39.17319-94.32564,160.45051-121.28283,232.52747v2.50679Z" fill="#005d56"/>
    <polygon points="1299.4076 525.65377 1352.993 525.65377 1372.73489 436.3411 1481.79007 293.1263 1481.79007 290.61951 1430.40026 290.61951 1356.75572 390.89787 1327.2984 290.61951 1272.46266 290.61951 1272.46266 293.1263 1317.58244 436.3411 1299.4076 525.65377" fill="#005d56"/>
  </g>
  <g>
    <path d="M142.99594,598.92467h-24.4074l2.50597-11.33228h62.00201l-2.50597,11.33228h-23.42768l-14.93005,70.3926h-13.94781l14.71093-70.3926Z" fill="#72bf44"/>
    <path d="M221.66833,631.61437c.43319-1.8524.87142-4.57623.87142-5.77507,0-3.92266-1.52625-5.33936-5.23106-5.33936-5.01446,0-11.55265,5.01194-15.79895,8.17274l-4.46793,3.37739-8.06444,37.26719h-13.5121l17.43602-81.72488h13.50958l-6.86561,32.58014,4.35963-3.2691c6.75731-5.1215,12.64067-8.06318,19.06805-8.06318,8.28356,0,13.62291,4.25008,13.62291,12.53111,0,2.07026-.32741,5.1215-.87394,7.73703l-8.49763,40.20887h-13.5121l7.95614-37.7029Z" fill="#72bf44"/>
    <path d="M246.18151,653.2992c0-2.72383.65231-6.10248,1.19884-8.50015l2.28937-10.3513c3.81311-17.54432,15.90725-25.6075,32.25273-25.6075,10.67871,0,19.83117,4.35837,19.83117,15.03709,0,14.16692-11.00612,19.39672-25.17053,19.39672h-15.47406l-.1083.65357c-.32741,1.30839-1.09054,5.0132-1.09054,6.9739,0,6.86561,4.68705,8.06444,11.33354,8.06444,7.84533,0,14.05611-1.74411,18.95975-3.48695h.87142l-1.95944,10.78701c-6.105,2.50597-14.81923,3.92266-21.03001,3.92266-12.42408,0-21.90395-4.35837-21.90395-16.88949ZM262.9627,634.66561h14.27522c7.73703,0,11.65843-3.05124,11.65843-8.93586,0-4.79409-4.46793-5.99292-9.26076-5.99292-8.50267,0-14.16692,3.59651-16.56459,14.49308l-.1083.43571Z" fill="#72bf44"/>
    <path d="M353.83752,587.59239h13.94781l-7.08472,33.01711h35.30523l6.9739-33.01711h14.05862l-17.54432,81.72488h-13.83951l7.84533-37.26719h-35.19693l-7.95362,37.26719h-13.94781l17.43602-81.72488Z" fill="#72bf44"/>
    <path d="M429.45488,621.04521h-9.47987l2.50849-11.33354h22.98945l-12.85727,59.60559h-13.5121l10.3513-48.27205ZM436.53709,587.59239h13.62291l-2.72509,12.2037h-13.5121l2.61427-12.2037Z" fill="#72bf44"/>
    <path d="M452.44685,678.9067h11.00612c15.25494,0,21.79313-5.33936,24.2991-16.99905l.65231-3.37865c-5.11772,2.83338-12.42156,7.41087-21.4632,7.41087-8.82757,0-15.25746-4.14178-15.25746-14.92879,0-3.81437,1.41543-9.04416,2.28937-13.62165,3.9214-17.10735,14.38352-27.67776,34.10639-27.67776h24.2991l-11.11442,51.54241c-4.79535,22.22884-18.41574,28.54918-42.06002,28.54918h-9.59069l2.83338-10.89657ZM490.69628,647.74199l5.77255-26.69678h-10.3513c-11.22272,0-16.67289,5.99292-18.95975,17.2169-.65483,3.15954-1.74285,6.75605-1.74285,9.69773,0,4.90364,1.95944,6.42863,6.53819,6.42863,6.53819,0,13.50958-3.70481,18.74315-6.64649Z" fill="#72bf44"/>
    <path d="M563.59108,631.61437c.43571-1.8524.87142-4.57623.87142-5.77507,0-3.92266-1.52373-5.33936-5.23106-5.33936-5.01194,0-11.55013,5.01194-15.79895,8.17274l-4.46793,3.37739-8.06192,37.26719h-13.51461l17.43602-81.72488h13.5121l-6.86561,32.58014,4.35712-3.2691c6.75731-5.1215,12.64319-8.06318,19.07057-8.06318,8.28104,0,13.62039,4.25008,13.62039,12.53111,0,2.07026-.32741,5.1215-.87142,7.73703l-8.49763,40.20887h-13.51461l7.95614-37.7029Z" fill="#72bf44"/>
    <path d="M593.66273,623.65948h33.55986l-2.39515,11.33354h-33.67068l2.50597-11.33354Z" fill="#72bf44"/>
    <path d="M654.4659,598.92467h-24.4074l2.50597-11.33228h62.00201l-2.50597,11.33228h-23.42768l-14.93005,70.3926h-13.94781l14.71093-70.3926Z" fill="#72bf44"/>
    <path d="M682.57811,653.2992c0-2.72383.65231-6.10248,1.19884-8.50015l2.28937-10.3513c3.81311-17.54432,15.90725-25.6075,32.25273-25.6075,10.67871,0,19.83117,4.35837,19.83117,15.03709,0,14.16692-11.00612,19.39672-25.17053,19.39672h-15.47406l-.1083.65357c-.32741,1.30839-1.09054,5.0132-1.09054,6.9739,0,6.86561,4.68705,8.06444,11.33354,8.06444,7.84533,0,14.05611-1.74411,18.95975-3.48695h.87142l-1.95944,10.78701c-6.105,2.50597-14.81923,3.92266-21.03001,3.92266-12.42408,0-21.90395-4.35837-21.90395-16.88949ZM699.3593,634.66561h14.27522c7.73703,0,11.65843-3.05124,11.65843-8.93586,0-4.79409-4.46793-5.99292-9.26076-5.99292-8.50267,0-14.16692,3.59651-16.56459,14.49308l-.1083.43571Z" fill="#72bf44"/>
    <path d="M744.25019,653.51706c0-2.94168.87142-7.08346,1.41543-9.26202l2.07026-9.80729c3.81311-17.76217,15.36576-25.6075,31.60294-25.6075,6.64397,0,14.2727,1.8524,18.41574,4.25008l-3.81562,17.43476h-11.44184l1.85366-8.82631c-1.30965-.65357-3.37991-1.63455-7.40961-1.63455-8.71927,0-13.62039,3.92266-16.01807,14.71093l-1.85366,8.93461c-.2166,1.08928-1.08802,5.0132-1.08802,7.08346,0,6.9739,4.46541,8.17274,11.33102,8.17274,7.51791,0,12.85727-1.96196,17.2169-3.92392h.76312l-2.18108,11.11568c-5.12024,2.28812-12.63815,4.03096-18.63234,4.03096-12.63815,0-22.22884-4.35837-22.22884-16.67163Z" fill="#72bf44"/>
    <path d="M847.87398,631.61437c.43823-1.8524.87142-4.57623.87142-5.77507,0-3.92266-1.52373-5.33936-5.22854-5.33936-5.01194,0-11.55013,5.01194-15.80147,8.17274l-4.46793,3.37739-8.06444,37.26719h-13.50958l17.4335-81.72488h13.51461l-6.86561,32.58014,4.35712-3.2691c6.75479-5.1215,12.64067-8.06318,19.07057-8.06318,8.28104,0,13.62039,4.25008,13.62039,12.53111,0,2.07026-.32741,5.1215-.87142,7.73703l-8.50015,40.20887h-13.5121l7.95362-37.7029Z" fill="#72bf44"/>
    <path d="M918.37362,587.59239h11.76673l25.93365,56.77095,11.98585-56.77095h13.94781l-17.54432,81.72488h-11.65591l-25.93617-56.77221-11.98585,56.77221h-13.94781l17.43602-81.72488Z" fill="#72bf44"/>
    <path d="M983.74798,653.2992c0-2.72383.65231-6.10248,1.19884-8.50015l2.28937-10.3513c3.81311-17.54432,15.90725-25.6075,32.25273-25.6075,10.67871,0,19.83117,4.35837,19.83117,15.03709,0,14.16692-11.00612,19.39672-25.17053,19.39672h-15.47406l-.1083.65357c-.32741,1.30839-1.09054,5.0132-1.09054,6.9739,0,6.86561,4.68705,8.06444,11.33354,8.06444,7.84533,0,14.05611-1.74411,18.95975-3.48695h.87142l-1.95944,10.78701c-6.105,2.50597-14.81923,3.92266-21.03001,3.92266-12.42408,0-21.90395-4.35837-21.90395-16.88949ZM1000.52917,634.66561h14.27522c7.73703,0,11.65843-3.05124,11.65843-8.93586,0-4.79409-4.46793-5.99292-9.26076-5.99292-8.50267,0-14.16692,3.59651-16.56459,14.49308l-.1083.43571Z" fill="#72bf44"/>
    <path d="M1050.432,609.71168h9.37158l3.1608-14.38352h13.50958l-3.2691,14.38352h15.36576l-2.50597,11.33354h-15.25494l-4.90364,23.86339c-.32741,1.8524-1.19884,5.01194-1.19884,6.53819,0,5.66677,2.94168,6.9739,9.80729,6.9739h6.42738l-2.39767,10.89657h-9.26076c-10.78701,0-18.19662-5.1215-18.19662-15.90977,0-2.07026.43319-4.57623.87142-6.86435l5.44765-25.49794h-9.47987l2.50597-11.33354Z" fill="#72bf44"/>
    <path d="M1093.14684,641.2038c0-4.79409.65231-10.57041,1.74285-16.12762l2.94168-15.3645h13.50958l-3.15828,15.3645c-.98224,5.66677-1.52625,11.44184-1.52625,16.12762,0,7.51917,1.09054,14.49308,3.92392,18.85145,7.2988-7.30132,14.05611-20.70385,16.78119-34.97907l2.83338-15.3645h13.62039l-2.94168,15.3645c-1.19884,5.66677-1.74285,11.22398-1.74285,16.12762,0,7.95488,1.19884,14.81923,3.81311,18.85145,7.0822-7.08346,13.62039-20.486,16.77867-34.97907l3.37991-15.3645h13.5121l-3.37739,15.3645c-4.25134,19.17886-15.47406,36.28621-24.95393,44.24109h-14.27522c-2.28686-3.70481-5.33936-11.87755-5.66677-17.76217-2.61427,5.55847-10.1347,14.60263-13.62039,17.76217h-14.81923c-4.57875-7.40961-6.75479-18.74189-6.75479-28.11347Z" fill="#72bf44"/>
    <path d="M1178.79061,649.26698c0-22.4467,14.16692-40.42673,35.95754-40.42673,13.94781,0,22.88367,6.75605,22.88367,20.92171,0,22.2301-13.07638,40.42673-35.96006,40.42673-13.40128,0-22.88115-7.30006-22.88115-20.92171ZM1224.01142,631.94178c0-8.3906-3.48569-11.87755-11.55013-11.87755-12.53237,0-20.05029,13.62039-20.05029,27.02419,0,8.17148,3.70481,11.87755,11.65843,11.87755,12.20496,0,19.94199-13.83951,19.94199-27.02419Z" fill="#72bf44"/>
    <path d="M1257.35217,609.71168h13.5121l-2.28937,10.78827.98224-1.19884c5.12024-6.32034,11.43932-9.91559,18.52404-9.91559h4.14052l-2.72257,12.53111h-5.12276c-4.57875,0-9.47987,1.52499-13.07638,4.57623l-5.01194,4.35837-8.17526,38.46603h-13.50958l12.74897-59.60559Z" fill="#72bf44"/>
    <path d="M1307.36581,587.59239h13.62039l-9.36906,44.02198h5.01194l23.10027-21.90269h14.81923v.87268l-27.89561,25.93365,16.01807,31.92783v.87142h-15.03583l-13.2955-26.37062h-5.23106l-5.55595,26.37062h-13.5121l17.3252-81.72488Z" fill="#72bf44"/>
  </g>
  <metadata>
    <sfw xmlns="http://ns.adobe.com/SaveForWeb/1.0/">
      <slices/>
      <sliceSourceBounds x="749.93" y="-195.4" width="1537.29" height="677.02" bottomLeftOrigin="true"/>
    </sfw>
  </metadata>
</svg>